<svg width="200" height="200" viewBox="0 0 200 200" fill="none" xmlns="http://www.w3.org/2000/svg">
<rect width="200" height="200" fill="#1B1B1E"/>
<path d="M104.046 190V10H118.107V99.2969H119.468L171.63 10H190L141.24 91.2109L190 190H172.991L132.622 106.328L118.107 131.641V190H104.046Z" fill="white"/>
<path d="M10 190V10H50.5959C58.6848 10 65.3563 12.168 70.6103 16.5039C75.8643 20.7812 79.7765 26.5527 82.3468 33.8184C84.9171 41.0254 86.2023 49.0234 86.2023 57.8125C86.2023 65.5469 85.314 71.9336 83.5375 76.9727C81.7987 82.0117 79.493 85.9961 76.6203 88.9258C73.7854 91.8555 70.7048 94.0234 67.3785 95.4297V97.1875C70.9316 97.5391 74.5036 99.4727 78.0944 102.988C81.6853 106.504 84.6903 111.543 87.1095 118.105C89.5286 124.668 90.7381 132.695 90.7381 142.188C90.7381 151.211 89.4152 159.326 86.7693 166.533C84.1234 173.74 79.9466 179.453 74.239 183.672C68.5314 187.891 61.1039 190 51.9566 190H10ZM24.0611 170.664H51.9566C61.1417 170.664 67.662 167.91 71.5175 162.402C75.4107 156.836 77.3574 150.098 77.3574 142.188C77.3574 136.094 76.3557 130.469 74.3524 125.312C72.349 120.098 69.4952 115.938 65.791 112.832C62.0867 109.668 57.702 108.086 52.637 108.086H24.0611V170.664ZM24.0611 89.1016H50.1423C54.3757 89.1016 58.1934 87.8125 61.5953 85.2344C65.035 82.6563 67.7565 79.0234 69.7598 74.3359C71.8009 69.6484 72.8215 64.1406 72.8215 57.8125C72.8215 49.9024 71.045 43.1934 67.4919 37.6856C63.9388 32.1191 58.3068 29.3359 50.5959 29.3359H24.0611V89.1016Z" fill="white"/>
</svg>
