<svg id="Layer_1" data-name="Layer 1" xmlns="http://www.w3.org/2000/svg" viewBox="0 0 200 200"><defs><style>.cls-1{fill:#fff;}.cls-2{fill:#1b1b1e;}</style></defs><rect class="cls-1" width="200" height="200"/><path class="cls-2" d="M-299.95,21.48v4h45.6c9.24,0,17,2.57,23.19,7.65a43.11,43.11,0,0,1,13.27,19.5,76.22,76.22,0,0,1,4.14,25.66c0,8.27-1,15.27-2.95,20.82a36.42,36.42,0,0,1-8.06,13.79,36.25,36.25,0,0,1-3.39,3.1,31.45,31.45,0,0,1,4.79,3.89c4.11,4,7.55,9.73,10.21,17s3.94,15.78,3.94,25.82a75.41,75.41,0,0,1-4.28,26.06,41.28,41.28,0,0,1-14.25,19.44c-6.56,4.85-15,7.31-25.25,7.31h-47v6h200v-200Zm193,194h-28.2l-37.61-78-9.13,15.93v62H-205.9v-190h24.06v78.15l45.65-78.15h30.08L-158,111.92Z" transform="translate(299.95 -21.48)"/><path class="cls-2" d="M-275.89,133.56v52.58H-253c7.52,0,12.58-2,15.46-6.13,3.32-4.75,4.94-10.42,4.94-17.34a41.42,41.42,0,0,0-2.67-15.07,25,25,0,0,0-7.11-10.46,14.64,14.64,0,0,0-9.94-3.58Z" transform="translate(299.95 -21.48)"/><path class="cls-2" d="M-239.79,92.85a36.4,36.4,0,0,0,2.66-14.56c0-6.9-1.52-12.76-4.53-17.42-2.64-4.14-6.67-6.06-12.69-6.06h-21.54v49.77h21.08a13.51,13.51,0,0,0,8.44-2.85A21.21,21.21,0,0,0-239.79,92.85Z" transform="translate(299.95 -21.48)"/></svg>