<svg width="330" height="330" viewBox="0 0 330 330" fill="none" xmlns="http://www.w3.org/2000/svg">
<circle cx="165" cy="165" r="165" fill="#DDDDDD"/>
<mask id="mask0_8_148" style="mask-type:alpha" maskUnits="userSpaceOnUse" x="0" y="0" width="330" height="330">
<circle cx="165" cy="165" r="165" fill="#FED18F"/>
</mask>
<g mask="url(#mask0_8_148)">
<path d="M219.03 146.881C227.657 182.184 236.823 213.529 226.147 211.431C215.328 230.147 181.404 218.003 158.206 220.323C135.78 222.567 106.336 226.581 92.63 211.431C85.4117 211.431 81.9051 186.696 89.617 159.825C82.8948 92.6193 106.415 35.2405 142.152 31.666C177.888 28.0915 212.308 79.6748 219.03 146.881Z" fill="#110C08"/>
<path d="M213.529 107.735C213.529 115.857 212.306 123.683 210.618 131.029C207.941 142.676 205.218 145.939 201.882 152.382C196.424 160.57 195.229 163.971 186.307 171.251C185.711 171.737 185.08 172.241 184.412 172.765C176.385 179.051 168.083 184.412 158.206 184.412C148.329 184.412 140.027 179.051 132 172.765C131.592 172.445 131.193 172.122 130.8 171.794C125.464 167.338 121.464 162.056 117.441 155.294C113.477 148.631 107.964 141.242 105.794 132.97C105.453 131.67 105.147 130.379 104.873 129.088C103.424 122.262 102.882 115.476 102.882 107.735C102.882 105.776 102.935 103.834 103.04 101.912C105.187 62.2849 129.065 31.0587 158.206 31.0587C188.76 31.0587 213.529 65.3879 213.529 107.735Z" fill="#DCB9A5"/>
<path d="M158.206 184.412C148.329 184.412 140.027 179.051 132 172.765C131.592 172.445 131.193 172.122 130.8 171.794C130.8 171.794 137.527 193.802 130.8 204.794C129.006 207.726 125.206 211.588 125.206 211.588L105.794 213.529L65.0294 220.323L90.2647 274.676L137.824 316.412L170.824 329.029L195.088 301.853L233.912 239.735L235.853 216.441L215.471 213.529L197.029 211.588C197.029 211.588 190.854 208.276 188.294 204.794C183.975 198.92 185.382 186.353 185.382 186.353L186.307 171.251C185.711 171.737 185.08 172.241 184.412 172.765C176.385 179.051 168.083 184.412 158.206 184.412Z" fill="#DCB9A5"/>
<path d="M102.882 107.735C102.882 105.776 102.935 103.834 103.04 101.912C103.04 101.912 100.75 99.943 99 99.9705C97.3051 99.9971 96.0882 100.365 95.1176 101.912C94.1471 103.458 93.8256 106.045 94.1471 108.706C94.6151 112.58 97.3194 113.919 99 117.441C100.758 121.125 100.217 124.055 102.882 127.147C103.591 127.969 104.873 129.088 104.873 129.088C103.424 122.262 102.882 115.476 102.882 107.735Z" fill="#DCB9A5"/>
<path d="M108.706 212.559C108.706 212.559 67.311 214.036 47.5588 228.088C16.6039 250.11 27.1764 318.353 27.1764 318.353L162.088 340.676L162.078 339.547L296.029 317.382C296.029 317.382 309.754 249.769 278.559 228.088C258.705 214.289 214.5 212.559 214.5 212.559C205.035 234.51 168.882 237.794 163.059 237.794C157.235 237.794 127.421 234.506 108.706 212.559Z" fill="#B78E6F"/>
</g>
<path d="M102.882 143.647C137.824 110.259 154.324 74.0882 158.206 50.4706C168.3 83.0823 196.706 114.529 209.647 135.882L224.206 172.765L226.147 116.471C210.618 34.1647 174.382 21.3529 158.206 25.2353C110.841 20.5764 92.5294 84.1176 89.2941 116.471L102.882 143.647Z" fill="#110C08"/>
</svg>
