<?xml version="1.0" encoding="utf-8"?>
<!-- Generator: Adobe Illustrator 24.3.0, SVG Export Plug-In . SVG Version: 6.00 Build 0)  -->
<svg version="1.1" id="Layer_1" xmlns="http://www.w3.org/2000/svg" xmlns:xlink="http://www.w3.org/1999/xlink" x="0px" y="0px"
	 viewBox="0 0 669 390" style="enable-background:new 0 0 669 390;" xml:space="preserve">
<style type="text/css">
	.st0{fill:#FFFFFF;}
	.st1{fill:#5865F2;}
	.st2{fill:#B30B00;}
	.st3{fill:#283544;}
	.st4{fill-rule:evenodd;clip-rule:evenodd;fill:url(#SVGID_1_);}
	.st5{fill-rule:evenodd;clip-rule:evenodd;fill:url(#SVGID_2_);}
	.st6{fill:#00005B;}
	.st7{fill:#9999FF;}
	.st8{fill:#330000;}
	.st9{fill:#FF9A00;}
	.st10{fill:#001E36;}
	.st11{fill:#31A8FF;}
	.st12{fill:#49021F;}
	.st13{fill:#FF3366;}
	.st14{fill:#470137;}
	.st15{fill:#FF61F6;}
	.st16{fill:#242424;}
	.st17{fill:url(#SVGID_3_);}
	.st18{fill:url(#SVGID_4_);}
	.st19{fill:url(#SVGID_5_);}
	.st20{fill:url(#SVGID_6_);}
	.st21{fill:url(#SVGID_7_);}
	.st22{fill:url(#SVGID_8_);}
	.st23{fill:url(#SVGID_9_);}
	.st24{fill:url(#SVGID_10_);}
	.st25{fill:url(#SVGID_11_);}
	.st26{fill:#47ACDF;}
	.st27{fill:url(#SVGID_12_);}
	.st28{fill:url(#SVGID_13_);}
	.st29{fill:url(#SVGID_14_);}
	.st30{fill-rule:evenodd;clip-rule:evenodd;fill:#FFFFFF;}
	.st31{fill:#BB0F23;}
	.st32{fill:url(#SVGID_15_);}
	.st33{fill-rule:evenodd;clip-rule:evenodd;}
	.st34{fill:#105DFB;}
	.st35{fill:url(#SVGID_16_);}
	.st36{fill:url(#SVGID_17_);}
	.st37{fill:url(#SVGID_18_);}
	.st38{fill:#EF3F36;}
	.st39{fill:#FCD900;}
	.st40{fill:#61BC5B;}
	.st41{fill:#5AB055;}
	.st42{fill:url(#SVGID_19_);}
	.st43{fill:#EACA05;}
	.st44{fill:#DF3A32;}
	.st45{fill:#1172B8;}
	.st46{fill:#33AADD;}
	.st47{fill:#E44D26;}
	.st48{fill:#F16529;}
	.st49{fill:#FFCA28;}
	.st50{fill:#3E3E3E;}
	.st51{fill:#41B883;}
	.st52{fill:#35495E;}
	.st53{fill:#53C1DE;}
	.st54{fill-rule:evenodd;clip-rule:evenodd;fill:#53C1DE;}
	.st55{fill:#34A853;}
	.st56{fill:#FBBC05;}
	.st57{fill:#188038;}
	.st58{fill:#4285F4;}
	.st59{fill:#1967D2;}
	.st60{fill:#EA4335;}
	.st61{clip-path:url(#SVGID_21_);}
	.st62{fill:#2FB776;}
	.st63{fill:url(#SVGID_22_);}
	.st64{fill:#229C5B;}
	.st65{fill:#27AE68;}
	.st66{fill:#1D854F;}
	.st67{fill:#197B43;}
	.st68{fill:#1B5B38;}
	.st69{fill-opacity:0.3;}
	.st70{fill:url(#SVGID_23_);}
	.st71{clip-path:url(#SVGID_25_);}
	.st72{fill:url(#SVGID_26_);}
	.st73{fill:url(#SVGID_27_);}
	.st74{fill:url(#SVGID_28_);}
	.st75{fill:url(#SVGID_29_);}
	.st76{fill:url(#SVGID_30_);}
	.st77{fill:url(#SVGID_31_);}
	.st78{fill:#C4C4C4;filter:url(#Adobe_OpacityMaskFilter);}
	.st79{mask:url(#mask0_4_137_1_);}
	.st80{fill:url(#SVGID_32_);}
	.st81{fill:#EB6C4D;}
	.st82{fill:url(#SVGID_33_);}
	.st83{fill:#47937D;}
	.st84{fill:#FEFFFE;}
	.st85{fill-rule:evenodd;clip-rule:evenodd;fill:#1ABCFE;}
	.st86{fill-rule:evenodd;clip-rule:evenodd;fill:#0ACF83;}
	.st87{fill-rule:evenodd;clip-rule:evenodd;fill:#FF7262;}
	.st88{fill-rule:evenodd;clip-rule:evenodd;fill:#F24E1E;}
	.st89{fill-rule:evenodd;clip-rule:evenodd;fill:#A259FF;}
	.st90{fill-rule:evenodd;clip-rule:evenodd;fill:#FDBD39;}
	.st91{fill-rule:evenodd;clip-rule:evenodd;fill:#F69833;}
	.st92{fill-rule:evenodd;clip-rule:evenodd;fill:#FECF33;}
	.st93{fill-rule:evenodd;clip-rule:evenodd;fill:#EE6723;}
</style>
<g>
	<path class="st0" d="M145,288.6c0-3.4,0-5,0.7-6.3c0.6-1.1,1.5-2,2.6-2.6c1.3-0.7,3-0.7,6.3-0.7h8.8c3.4,0,5,0,6.3,0.7
		c1.1,0.6,2,1.5,2.6,2.6c0.7,1.3,0.7,3,0.7,6.3v8.8c0,3.4,0,5-0.7,6.3c-0.6,1.1-1.5,2-2.6,2.6c-1.3,0.7-3,0.7-6.3,0.7h-8.8
		c-3.4,0-5,0-6.3-0.7c-1.1-0.6-2-1.5-2.6-2.6c-0.7-1.3-0.7-3-0.7-6.3V288.6z"/>
	<path class="st1" d="M166.6,286.3c-1.4-0.6-2.9-1.1-4.5-1.3c-0.2,0.3-0.4,0.8-0.6,1.1c-1.7-0.2-3.4-0.2-5,0
		c-0.2-0.4-0.4-0.8-0.6-1.1c-1.6,0.3-3.1,0.7-4.5,1.3c-2.9,4.1-3.7,8.1-3.3,12c1.9,1.3,3.8,2.1,5.6,2.7c0.4-0.6,0.8-1.2,1.2-1.8
		c-0.7-0.2-1.3-0.5-1.9-0.9c0.2-0.1,0.3-0.2,0.5-0.3c3.6,1.6,7.6,1.6,11.1,0c0.1,0.1,0.3,0.2,0.5,0.3c-0.6,0.3-1.2,0.6-1.9,0.9
		c0.3,0.6,0.7,1.3,1.2,1.8c1.8-0.5,3.7-1.3,5.6-2.7C170.4,293.8,169.1,289.8,166.6,286.3z M155.3,295.9c-1.1,0-2-1-2-2.1
		c0-1.2,0.9-2.1,2-2.1c1.1,0,2,1,2,2.1C157.3,295,156.5,295.9,155.3,295.9z M162.7,295.9c-1.1,0-2-1-2-2.1c0-1.2,0.9-2.1,2-2.1
		c1.1,0,2,1,2,2.1C164.6,295,163.8,295.9,162.7,295.9z"/>
</g>
<g>
	<path class="st2" d="M103,289.1c0-3.5,0-5.3,0.7-6.7c0.6-1.2,1.6-2.2,2.8-2.8c1.4-0.7,3.1-0.7,6.7-0.7h7.7c3.5,0,5.3,0,6.7,0.7
		c1.2,0.6,2.2,1.6,2.8,2.8c0.7,1.4,0.7,3.1,0.7,6.7v7.7c0,3.5,0,5.3-0.7,6.7c-0.6,1.2-1.6,2.2-2.8,2.8c-1.4,0.7-3.1,0.7-6.7,0.7
		h-7.7c-3.5,0-5.3,0-6.7-0.7c-1.2-0.6-2.2-1.6-2.8-2.8c-0.7-1.4-0.7-3.1-0.7-6.7V289.1z"/>
	<path class="st0" d="M125,294.9c-1.3-1.4-4.9-0.8-5.7-0.7c-1.2-1.3-2.1-2.7-2.4-3.2c0.4-1.3,0.8-2.9,0.8-4.3c0-1.3-0.5-2.7-1.9-2.7
		c-0.5,0-1,0.3-1.2,0.7c-0.6,1.1-0.3,3.2,0.6,5.4c-0.5,1.6-1.4,4-2.4,5.9c-1.4,0.5-4.4,2-4.7,3.6c-0.1,0.4,0.1,1,0.4,1.3
		c0.3,0.4,0.8,0.4,1.2,0.4c1.8,0,3.7-2.6,5-4.9c1-0.4,2.7-0.9,4.3-1.2c1.9,1.8,3.6,2,4.5,2c1.2,0,1.7-0.5,1.8-1
		C125.6,295.9,125.4,295.3,125,294.9z M123.8,295.8c-0.1,0.4-0.5,0.7-1.3,0.5c-1-0.3-1.8-0.7-2.5-1.3c0.6-0.1,2.1-0.3,3.1-0.1
		C123.5,295,123.9,295.3,123.8,295.8z M115.4,285.1c0.1-0.2,0.3-0.3,0.4-0.3c0.4,0,0.5,0.5,0.5,1c-0.1,1.1-0.3,2.2-0.6,3.2
		C115,287,115.1,285.6,115.4,285.1z M115.3,295.2c0.4-0.8,1-2.3,1.1-2.9c0.4,0.8,1.2,1.7,1.6,2.1
		C118.1,294.4,116.5,294.7,115.3,295.2z M112.3,297.2c-1.2,2-2.3,3.2-3,3.2c-0.1,0-0.3,0-0.3-0.1c-0.1-0.2-0.2-0.4-0.1-0.5
		C109,299.1,110.4,298.1,112.3,297.2z"/>
</g>
<g>
	<g>
		<path class="st3" d="M188,281h26c0.6,0,1,0.4,1,1v22c0,0.6-0.4,1-1,1h-26c-0.6,0-1-0.4-1-1v-22C187,281.4,187.4,281,188,281z"/>
	</g>
	
		<linearGradient id="SVGID_1_" gradientUnits="userSpaceOnUse" x1="207.181" y1="111" x2="207.181" y2="87" gradientTransform="matrix(1 0 0 -1 0 392)">
		<stop  offset="0" style="stop-color:#F7F6F7"/>
		<stop  offset="1" style="stop-color:#D9E4F0"/>
	</linearGradient>
	<path class="st4" d="M202.2,281h11.9c0.4,0,0.7,0.3,0.8,0.8v22.5c0,0.4-0.4,0.8-0.8,0.8h-9.7c-0.4-1.3-0.6-2.7-0.8-4
		c2.5-0.5,4.9-1.6,6.4-3.5c0.5-0.8-0.4-1.3-0.8-0.8c-1.2,1.7-3.4,2.8-5.7,3.2c-0.3-3.9,0-6.9,0-6.9h-4.1
		C199.4,293,199.4,286.8,202.2,281z M207.5,290.1c0.5,0,0.8-0.4,0.8-0.8v-1.5c0-0.5-0.4-0.8-0.8-0.8c-0.5,0-0.8,0.4-0.8,0.8v1.5
		C206.7,289.8,207.1,290.1,207.5,290.1z"/>
	
		<linearGradient id="SVGID_2_" gradientUnits="userSpaceOnUse" x1="195.25" y1="111" x2="195.25" y2="87" gradientTransform="matrix(1 0 0 -1 0 392)">
		<stop  offset="0" style="stop-color:#2FD4FB"/>
		<stop  offset="1" style="stop-color:#2777EE"/>
	</linearGradient>
	<path class="st5" d="M200.9,301.1c-3.5,0-7-1.3-9.1-3.7c-0.5-0.8,0.4-1.3,0.8-0.8c1.7,2.2,5,3.4,8.2,3.4c0.8,0,1.7-0.1,1.7-0.1
		c-0.3-2.7-0.2-5.1-0.1-6.3h-4V293c0,0,0-6.2,2.9-12h-13.5c-0.5,0-0.8,0.4-0.8,0.8v22.5c0,0.4,0.4,0.8,0.8,0.8h15.7
		c-0.1-0.2-0.1-0.4-0.1-0.6c-0.3-1.1-0.5-2-0.6-3.3C202.7,301,201.5,301.1,200.9,301.1z M194.4,287c-0.5,0-0.8,0.4-0.8,0.8v1.5
		c0,0.4,0.4,0.7,0.8,0.7c0.4,0,0.8-0.3,0.8-0.7v-1.5C195.2,287.4,194.9,287,194.4,287z"/>
</g>
<g>
	<path class="st6" d="M229,73.1c0-3.5,0-5.3,0.7-6.7c0.6-1.2,1.6-2.2,2.8-2.8c1.4-0.7,3.1-0.7,6.7-0.7h7.7c3.5,0,5.3,0,6.7,0.7
		c1.2,0.6,2.2,1.6,2.8,2.8c0.7,1.4,0.7,3.1,0.7,6.7v7.7c0,3.5,0,5.3-0.7,6.7c-0.6,1.2-1.6,2.2-2.8,2.8c-1.4,0.7-3.1,0.7-6.7,0.7
		h-7.7c-3.5,0-5.3,0-6.7-0.7c-1.2-0.6-2.2-1.6-2.8-2.8c-0.7-1.4-0.7-3.1-0.7-6.7V73.1z"/>
	<path class="st7" d="M235,82.8V70.2c0-0.1,0-0.1,0.1-0.1c1.2,0,2.4-0.1,3.6-0.1c2,0,4.1,0.7,4.8,2.8c0.2,0.5,0.3,1,0.3,1.6
		c0,1.1-0.2,1.9-0.7,2.6c-1.3,1.9-3.6,1.9-5.6,1.9v3.9c0,0.1-0.1,0.2-0.2,0.2h-2.2C235,83,235,82.9,235,82.8z M237.6,72.4v4.1
		c0.8,0.1,1.6,0.1,2.4-0.2c0.9-0.3,1.3-1,1.3-1.9c0-0.8-0.4-1.5-1.1-1.8C239.4,72.3,238.4,72.3,237.6,72.4z"/>
	<path class="st7" d="M245.4,73.2h2.1c0.1,0,0.2,0.1,0.2,0.2c0.1,0.3,0.2,0.8,0.2,1.1c0.4-0.4,0.8-0.8,1.3-1.1
		c0.5-0.3,1.1-0.5,1.7-0.4c0.1,0,0.2,0.1,0.2,0.2v2.4c0,0.1-0.1,0.1-0.2,0.1c-0.9-0.1-2.2,0.2-2.9,0.9v6.2c0,0.1,0,0.2-0.2,0.2h-2.2
		c-0.1,0-0.2-0.1-0.2-0.2v-6.7c0-0.9,0-1.8-0.1-2.7C245.3,73.3,245.4,73.2,245.4,73.2z"/>
</g>
<g>
	<path class="st6" d="M187,73.1c0-3.5,0-5.3,0.7-6.7c0.6-1.2,1.6-2.2,2.8-2.8c1.4-0.7,3.1-0.7,6.7-0.7h7.7c3.5,0,5.3,0,6.7,0.7
		c1.2,0.6,2.2,1.6,2.8,2.8c0.7,1.4,0.7,3.1,0.7,6.7v7.7c0,3.5,0,5.3-0.7,6.7c-0.6,1.2-1.6,2.2-2.8,2.8c-1.4,0.7-3.1,0.7-6.7,0.7
		h-7.7c-3.5,0-5.3,0-6.7-0.7c-1.2-0.6-2.2-1.6-2.8-2.8c-0.7-1.4-0.7-3.1-0.7-6.7V73.1z"/>
	<path class="st7" d="M197.8,79.9h-4.4l-0.9,2.9c0,0.1-0.1,0.2-0.2,0.2h-2.2c-0.1,0-0.2-0.1-0.1-0.2l3.8-11.4c0-0.1,0.1-0.2,0.1-0.4
		c0-0.3,0.1-0.5,0.1-0.8c0-0.1,0.1-0.2,0.1-0.1h3c0.1,0,0.1,0,0.2,0.1l4.3,12.7c0,0.1,0,0.2-0.1,0.2H199c-0.1,0-0.2-0.1-0.2-0.1
		L197.8,79.9z M194.1,77.4h3c-0.5-1.7-1-3.4-1.5-5.2C195.1,74.1,194.7,75.8,194.1,77.4z"/>
	<path class="st7" d="M202.7,82.8v-7.4c0-0.2,0-0.5,0-0.8c0-0.3,0-0.5,0-0.8c0-0.3,0-0.5,0-0.6c0-0.1,0-0.2,0.1-0.2h2
		c0.4,0,0.4,0.5,0.4,0.8c0.4-0.3,0.8-0.6,1.2-0.8c0.5-0.2,0.9-0.3,1.4-0.2c0.4,0,0.7,0.1,1.1,0.2c0.4,0.1,0.8,0.4,1.1,0.7
		c0.3,0.3,0.5,0.7,0.7,1.1c0.2,0.5,0.3,1.2,0.3,2v5.9c0,0.1-0.1,0.2-0.2,0.2h-2.3c-0.1,0-0.2-0.1-0.2-0.2v-5.7c0-0.3,0-0.7-0.2-1
		c-0.5-1.2-2.1-1-2.9-0.2v6.9c0,0.1,0,0.2-0.2,0.2h-2.3C202.8,83,202.7,82.9,202.7,82.8z"/>
</g>
<g>
	<path class="st8" d="M145,73.1c0-3.5,0-5.3,0.7-6.7c0.6-1.2,1.6-2.2,2.8-2.8c1.4-0.7,3.1-0.7,6.7-0.7h7.7c3.5,0,5.3,0,6.7,0.7
		c1.2,0.6,2.2,1.6,2.8,2.8c0.7,1.4,0.7,3.1,0.7,6.7v7.7c0,3.5,0,5.3-0.7,6.7c-0.6,1.2-1.6,2.2-2.8,2.8c-1.4,0.7-3.1,0.7-6.7,0.7
		h-7.7c-3.5,0-5.3,0-6.7-0.7c-1.2-0.6-2.2-1.6-2.8-2.8c-0.7-1.4-0.7-3.1-0.7-6.7V73.1z"/>
	<path class="st9" d="M158.6,80.6h-4.3l-0.9,2.8c0,0.1-0.1,0.2-0.2,0.2h-2.2c-0.1,0-0.2-0.1-0.1-0.2l3.8-11.1c0-0.1,0.1-0.2,0.1-0.4
		c0.1-0.3,0.1-0.5,0.1-0.8c0-0.1,0.1-0.1,0.1-0.1h3c0.1,0,0.1,0,0.2,0.1l4.3,12.3c0,0.1,0,0.2-0.1,0.2h-2.4c-0.1,0-0.2,0-0.2-0.1
		L158.6,80.6z M154.9,78.2h3c-0.5-1.7-1-3.3-1.5-5C155.9,74.9,155.4,76.5,154.9,78.2z"/>
	<path class="st9" d="M164.8,73c-0.2,0-0.4,0-0.6-0.1c-0.2-0.1-0.3-0.2-0.5-0.3c-0.1-0.1-0.2-0.3-0.3-0.5c-0.1-0.2-0.1-0.4-0.1-0.6
		c0-0.2,0-0.4,0.1-0.6c0.1-0.2,0.2-0.4,0.3-0.5c0.1-0.1,0.3-0.2,0.5-0.3s0.4-0.1,0.6-0.1c0.5,0,0.8,0.1,1.1,0.4
		c0.1,0.1,0.2,0.3,0.3,0.5c0.1,0.2,0.1,0.4,0.1,0.6c0,0.2,0,0.4-0.1,0.6c-0.1,0.2-0.2,0.4-0.3,0.5c-0.1,0.1-0.3,0.3-0.5,0.3
		C165.2,73,165,73,164.8,73z M163.5,83.4v-9.2c0-0.1,0.1-0.2,0.2-0.2h2.3c0.1,0,0.2,0.1,0.2,0.2v9.2c0,0.1-0.1,0.2-0.2,0.2h-2.3
		C163.6,83.6,163.5,83.5,163.5,83.4z"/>
</g>
<g>
	<path class="st6" d="M271,73.1c0-3.5,0-5.3,0.7-6.7c0.6-1.2,1.6-2.2,2.8-2.8c1.4-0.7,3.1-0.7,6.7-0.7h7.7c3.5,0,5.3,0,6.7,0.7
		c1.2,0.6,2.2,1.6,2.8,2.8c0.7,1.4,0.7,3.1,0.7,6.7v7.7c0,3.5,0,5.3-0.7,6.7c-0.6,1.2-1.6,2.2-2.8,2.8c-1.4,0.7-3.1,0.7-6.7,0.7
		h-7.7c-3.5,0-5.3,0-6.7-0.7c-1.2-0.6-2.2-1.6-2.8-2.8c-0.7-1.4-0.7-3.1-0.7-6.7V73.1z"/>
	<path class="st7" d="M282.8,80.6h-4.3l-0.9,2.8c0,0.1-0.1,0.2-0.2,0.2h-2.2c-0.1,0-0.2-0.1-0.1-0.2l3.8-11.1c0-0.1,0.1-0.2,0.1-0.4
		c0.1-0.3,0.1-0.5,0.1-0.8c0-0.1,0.1-0.1,0.1-0.1h3c0.1,0,0.1,0,0.2,0.1l4.3,12.3c0,0.1,0,0.2-0.1,0.2h-2.4c-0.1,0-0.2,0-0.2-0.1
		L282.8,80.6z M279.1,78.2h3c-0.5-1.7-1-3.3-1.5-5C280.1,74.9,279.6,76.6,279.1,78.2z"/>
	<path class="st7" d="M289.7,79.5c0.2,1.4,1.4,2.1,2.7,2.1c0.8,0,1.6-0.1,2.3-0.4c0.1-0.1,0.1,0,0.1,0.1v1.8c0,0.1,0,0.2-0.1,0.2
		c-0.9,0.4-1.9,0.5-2.8,0.5c-2.8,0-4.8-2-4.8-4.9c0-2.7,1.8-5,4.5-5c2.3-0.1,4,1.8,4,4.1c0,0.4,0,0.9-0.1,1.3c0,0.1-0.1,0.2-0.2,0.2
		C293.4,79.4,291.5,79.5,289.7,79.5z M289.7,77.7c1,0,2.1,0,3.1,0c0.2,0,0.3,0,0.3-0.2c0-0.9-0.8-1.6-1.6-1.5
		C290.4,75.9,289.8,76.8,289.7,77.7z"/>
</g>
<g>
	<path class="st10" d="M103,73.1c0-3.5,0-5.3,0.7-6.7c0.6-1.2,1.6-2.2,2.8-2.8c1.4-0.7,3.1-0.7,6.7-0.7h7.7c3.5,0,5.3,0,6.7,0.7
		c1.2,0.6,2.2,1.6,2.8,2.8c0.7,1.4,0.7,3.1,0.7,6.7v7.7c0,3.5,0,5.3-0.7,6.7c-0.6,1.2-1.6,2.2-2.8,2.8c-1.4,0.7-3.1,0.7-6.7,0.7
		h-7.7c-3.5,0-5.3,0-6.7-0.7c-1.2-0.6-2.2-1.6-2.8-2.8c-0.7-1.4-0.7-3.1-0.7-6.7V73.1z"/>
	<path class="st11" d="M109,83.5V71.2c0-0.1,0-0.1,0.1-0.1c1.2,0,2.4-0.1,3.6-0.1c2,0,4.1,0.7,4.8,2.7c0.2,0.5,0.3,1,0.3,1.6
		c0,1-0.2,1.9-0.7,2.5c-1.3,1.9-3.6,1.8-5.6,1.8v3.8c0,0.1-0.1,0.2-0.2,0.2h-2.2C109,83.7,109,83.6,109,83.5z M111.5,73.4v4
		c0.8,0.1,1.6,0.1,2.4-0.2c0.9-0.2,1.3-1,1.3-1.9c0-0.8-0.4-1.5-1.1-1.7C113.4,73.3,112.4,73.3,111.5,73.4z"/>
	<path class="st11" d="M125.1,76.6c-0.4-0.2-0.7-0.3-1.1-0.4c-0.5-0.1-2.5-0.5-2.5,0.5c0,0.6,0.9,0.9,1.3,1c1.4,0.5,3,1.4,3,3.1
		c0,2.2-2.1,3-3.9,3c-0.9,0-1.9-0.1-2.8-0.5c-0.1,0-0.1-0.1-0.1-0.2V81c0-0.1,0.1-0.2,0.2-0.1c0.8,0.5,1.8,0.8,2.8,0.8
		c0.4,0,1.3,0,1.3-0.7c0-0.6-1-0.9-1.4-1c-0.6-0.2-1.1-0.5-1.7-0.9c-0.7-0.5-1.2-1.3-1.2-2.2c0-2,1.9-3,3.7-3c0.8,0,1.7,0.1,2.5,0.4
		c0.1,0,0.1,0.1,0.1,0.3v1.9C125.3,76.6,125.2,76.7,125.1,76.6z"/>
</g>
<g>
	<path class="st12" d="M313,73.1c0-3.5,0-5.3,0.7-6.7c0.6-1.2,1.6-2.2,2.8-2.8c1.4-0.7,3.1-0.7,6.7-0.7h7.7c3.5,0,5.3,0,6.7,0.7
		c1.2,0.6,2.2,1.6,2.8,2.8c0.7,1.4,0.7,3.1,0.7,6.7v7.7c0,3.5,0,5.3-0.7,6.7c-0.6,1.2-1.6,2.2-2.8,2.8c-1.4,0.7-3.1,0.7-6.7,0.7
		h-7.7c-3.5,0-5.3,0-6.7-0.7c-1.2-0.6-2.2-1.6-2.8-2.8c-0.7-1.4-0.7-3.1-0.7-6.7V73.1z"/>
	<path class="st13" d="M322.6,71.2v12.3c0,0.1-0.1,0.2-0.2,0.2h-2.3c-0.1,0-0.1-0.1-0.1-0.2V71.2c0-0.1,0.1-0.2,0.2-0.2h2.3
		C322.5,71,322.6,71.1,322.6,71.2z"/>
	<path class="st13" d="M329.3,83.9c-0.9,0-1.7-0.2-2.5-0.5c-1.7-0.8-2.4-2.5-2.4-4.4c0-1.8,0.9-3.5,2.5-4.4c1.1-0.6,2.3-0.8,3.6-0.7
		v-3.8c0-0.1,0-0.1,0.1-0.1h2.4c0.1,0,0.1,0,0.1,0.1v11.4c0,0.5,0,0.9,0.1,1.4c0,0.1,0,0.2-0.1,0.2c-0.6,0.3-1.2,0.5-1.9,0.6
		C330.5,83.8,329.9,83.8,329.3,83.9z M330.5,81.5v-5.3c-1.7-0.5-3.4,0.8-3.4,2.6C327,80.7,328.7,82,330.5,81.5z"/>
</g>
<g>
	<path class="st14" d="M397,73.1c0-3.5,0-5.3,0.7-6.7c0.6-1.2,1.6-2.2,2.8-2.8c1.4-0.7,3.1-0.7,6.7-0.7h7.7c3.5,0,5.3,0,6.7,0.7
		c1.2,0.6,2.2,1.6,2.8,2.8c0.7,1.4,0.7,3.1,0.7,6.7v7.7c0,3.5,0,5.3-0.7,6.7c-0.6,1.2-1.6,2.2-2.8,2.8c-1.4,0.7-3.1,0.7-6.7,0.7
		h-7.7c-3.5,0-5.3,0-6.7-0.7c-1.2-0.6-2.2-1.6-2.8-2.8c-0.7-1.4-0.7-3.1-0.7-6.7V73.1z"/>
	<path class="st15" d="M411.6,71.2l-3.5,5.9l3.7,6.3c0.1,0.1,0,0.2-0.1,0.2h-2.7c-0.2,0-0.3,0-0.4-0.1c-0.2-0.5-0.5-1-0.8-1.5
		c-0.3-0.5-0.5-1-0.8-1.5c-0.3-0.5-0.6-1-0.8-1.6c-0.3,0.5-0.5,1-0.8,1.5c-0.3,0.5-0.5,1-0.8,1.5c-0.3,0.5-0.5,1-0.8,1.5
		c-0.1,0.1-0.1,0.1-0.3,0.1h-2.6c-0.1,0-0.1-0.1-0.1-0.2l3.6-6.1l-3.5-6.1c-0.1-0.1,0-0.2,0.1-0.2h2.6c0.1,0,0.2,0,0.3,0.1
		c0.2,0.5,0.5,1,0.8,1.5c0.3,0.5,0.6,1,0.8,1.5c0.3,0.5,0.6,1,0.8,1.5c0.3-0.5,0.5-1,0.8-1.5c0.3-0.5,0.5-1,0.8-1.5
		c0.3-0.5,0.5-1,0.8-1.5c0-0.1,0.1-0.2,0.2-0.2h2.5C411.6,71,411.7,71.2,411.6,71.2z"/>
	<path class="st15" d="M417,83.9c-1.7,0-3.4-0.7-4.3-2.2c-0.4-0.7-0.6-1.6-0.6-2.7c0-0.9,0.2-1.8,0.6-2.5c1.1-2,3.3-2.7,5.4-2.5
		v-3.8c0-0.1,0-0.1,0.1-0.1h2.4c0.1,0,0.1,0,0.1,0.1v11.4c0,0.5,0,0.9,0.1,1.4c0,0.1,0,0.2-0.1,0.2C419.6,83.6,418.3,83.8,417,83.9z
		 M418.2,81.5v-5.3c-1.7-0.5-3.4,0.8-3.4,2.6C414.8,80.7,416.4,82,418.2,81.5z"/>
</g>
<g>
	<path class="st16" d="M565,289.1c0-3.5,0-5.3,0.7-6.7c0.6-1.2,1.6-2.2,2.8-2.8c1.4-0.7,3.1-0.7,6.7-0.7h7.7c3.5,0,5.3,0,6.7,0.7
		c1.2,0.6,2.2,1.6,2.8,2.8c0.7,1.4,0.7,3.1,0.7,6.7v7.7c0,3.5,0,5.3-0.7,6.7c-0.6,1.2-1.6,2.2-2.8,2.8c-1.4,0.7-3.1,0.7-6.7,0.7
		h-7.7c-3.5,0-5.3,0-6.7-0.7c-1.2-0.6-2.2-1.6-2.8-2.8c-0.7-1.4-0.7-3.1-0.7-6.7V289.1z"/>
	
		<linearGradient id="SVGID_3_" gradientUnits="userSpaceOnUse" x1="579.0568" y1="98.6739" x2="567.5238" y2="90.4069" gradientTransform="matrix(1 0 0 -1 0 392)">
		<stop  offset="0" style="stop-color:#FE5004"/>
		<stop  offset="0.6025" style="stop-color:#FFB915"/>
		<stop  offset="1" style="stop-color:#FFFC41"/>
	</linearGradient>
	<path class="st17" d="M572.9,293.4c-3.9,2.9-4.7,7.1-4.7,10.6c0.2-1,1-3.5,2.8-4.9c2.7-2.1,7.7-1.4,13.2-5.1c5.5-3.6,6-8.4,5.3-12
		c-0.5,3.5-2.1,5-4.4,6.4C580.1,291.3,577,290.3,572.9,293.4z"/>
	
		<linearGradient id="SVGID_4_" gradientUnits="userSpaceOnUse" x1="579.0825" y1="96.2815" x2="579.1495" y2="95.0815" gradientTransform="matrix(1 0 0 -1 0 392)">
		<stop  offset="0" style="stop-color:#FD3E00"/>
		<stop  offset="1" style="stop-color:#FD4400;stop-opacity:0"/>
	</linearGradient>
	<path class="st18" d="M572.9,293.4c-3.9,2.9-4.7,7.1-4.7,10.6c0.2-1,1-3.5,2.8-4.9c2.7-2.1,7.7-1.4,13.2-5.1c5.5-3.6,6-8.4,5.3-12
		c-0.5,3.5-2.1,5-4.4,6.4C580.1,291.3,577,290.3,572.9,293.4z"/>
	
		<linearGradient id="SVGID_5_" gradientUnits="userSpaceOnUse" x1="581.7545" y1="104.026" x2="565.4875" y2="89.5589" gradientTransform="matrix(1 0 0 -1 0 392)">
		<stop  offset="0" style="stop-color:#005FC6"/>
		<stop  offset="0.2798" style="stop-color:#23A4DF"/>
		<stop  offset="0.4652" style="stop-color:#3AC2B7"/>
		<stop  offset="0.6406" style="stop-color:#60EC7A"/>
		<stop  offset="0.8187" style="stop-color:#CFFDBD"/>
		<stop  offset="1" style="stop-color:#D0FCB6"/>
	</linearGradient>
	<path class="st19" d="M568.2,302.5c0.2-3.2,1.2-6.6,4.6-9.1c2.2-1.6,4.1-2.1,6.1-2.6c1.2-0.3,2.4-0.6,3.7-1.2
		c-0.5,0.5-2.8,1.6-4.6,2.3c-1.7,0.7-3.6,1.5-5.1,2.5C569.9,296.5,568.6,300,568.2,302.5z"/>
	
		<linearGradient id="SVGID_6_" gradientUnits="userSpaceOnUse" x1="575.4652" y1="95.9216" x2="574.0652" y2="97.1886" gradientTransform="matrix(1 0 0 -1 0 392)">
		<stop  offset="0" style="stop-color:#0061CB"/>
		<stop  offset="1" style="stop-color:#067EEA;stop-opacity:0"/>
	</linearGradient>
	<path class="st20" d="M568.2,302.5c0.2-3.2,1.2-6.6,4.6-9.1c2.2-1.6,4.1-2.1,6.1-2.6c1.2-0.3,2.4-0.6,3.7-1.2
		c-0.5,0.5-2.8,1.6-4.6,2.3c-1.7,0.7-3.6,1.5-5.1,2.5C569.9,296.5,568.6,300,568.2,302.5z"/>
	
		<linearGradient id="SVGID_7_" gradientUnits="userSpaceOnUse" x1="590.0987" y1="109.5134" x2="568.6987" y2="87.5804" gradientTransform="matrix(1 0 0 -1 0 392)">
		<stop  offset="0" style="stop-color:#8E55F1"/>
		<stop  offset="0.1408" style="stop-color:#8B48DF"/>
		<stop  offset="0.2749" style="stop-color:#E04DD9"/>
		<stop  offset="0.4923" style="stop-color:#F496C8"/>
		<stop  offset="0.6331" style="stop-color:#FAD2BA"/>
		<stop  offset="0.857" style="stop-color:#FEF7E5"/>
		<stop  offset="1" style="stop-color:#FFF5BF"/>
	</linearGradient>
	<path class="st21" d="M587.2,291.4c-0.4,0.4-0.8,0.7-1.3,1c-2.1,1.3-4.4,1.7-6.6,2.1c-1.8,0.3-3.5,0.6-5.1,1.4
		c-3.6,1.7-5.8,5.1-6.1,8.1l0,0v0c0-0.2,0-0.5,0-0.7c0-0.4,0.1-0.8,0.1-1.2c0.5-2.5,1.8-5.7,4.6-7.6c1.2-0.8,2.6-1.5,4-2.1
		c1.2-0.4,2.4-0.7,3.4-0.9c1.7-0.4,3.2-0.7,4.9-1.6c3.5-1.8,4.5-5.6,4.2-7.8C590.1,284.8,589.9,288.3,587.2,291.4z"/>
	
		<linearGradient id="SVGID_8_" gradientUnits="userSpaceOnUse" x1="587.5516" y1="100.7189" x2="570.0847" y2="92.8189" gradientTransform="matrix(1 0 0 -1 0 392)">
		<stop  offset="0" style="stop-color:#F41A73"/>
		<stop  offset="0.3999" style="stop-color:#FC50A3"/>
		<stop  offset="0.5845" style="stop-color:#FE9485"/>
		<stop  offset="0.7031" style="stop-color:#FFAF88"/>
		<stop  offset="1" style="stop-color:#FFC385"/>
	</linearGradient>
	<path class="st22" d="M587.2,291.4c-0.4,0.4-0.8,0.7-1.3,1c-2.1,1.3-4.4,1.7-6.6,2.1c-1.8,0.3-3.5,0.6-5.1,1.4
		c-2.1,1-3.7,2.5-4.7,4.2c0.9-1.3,2.3-2.7,4.1-3.3c1.7-0.5,3.3-0.6,5-0.7c0.5,0,1,0,1.5-0.1c1.3-0.5,2.7-1.1,4.2-2.1
		C585.5,293.1,586.4,292.3,587.2,291.4z"/>
	
		<linearGradient id="SVGID_9_" gradientUnits="userSpaceOnUse" x1="578.3521" y1="98.3413" x2="578.3851" y2="96.7413" gradientTransform="matrix(1 0 0 -1 0 392)">
		<stop  offset="0" style="stop-color:#9B0008"/>
		<stop  offset="1" style="stop-color:#EA115A;stop-opacity:0"/>
	</linearGradient>
	<path class="st23" d="M587.2,291.4c-0.4,0.4-0.8,0.7-1.3,1c-2.1,1.3-4.4,1.7-6.6,2.1c-1.8,0.3-3.5,0.6-5.1,1.4
		c-2.1,1-3.7,2.5-4.7,4.2c0.9-1.3,2.3-2.7,4.1-3.3c1.7-0.5,3.3-0.6,5-0.7c0.5,0,1,0,1.5-0.1c1.3-0.5,2.7-1.1,4.2-2.1
		C585.5,293.1,586.4,292.3,587.2,291.4z"/>
	
		<linearGradient id="SVGID_10_" gradientUnits="userSpaceOnUse" x1="589.9244" y1="107.7034" x2="574.1574" y2="97.4033" gradientTransform="matrix(1 0 0 -1 0 392)">
		<stop  offset="0" style="stop-color:#231283"/>
		<stop  offset="0.3629" style="stop-color:#7053C6"/>
		<stop  offset="0.4664" style="stop-color:#7272DB"/>
		<stop  offset="0.6343" style="stop-color:#399EE9"/>
		<stop  offset="1" style="stop-color:#00CFFF"/>
	</linearGradient>
	<path class="st24" d="M589.5,282C589.5,282,589.5,282,589.5,282c-0.5,3.4-2.2,5-4.4,6.3c-0.9,0.5-1.7,0.9-2.4,1.2
		c-0.5,0.5-2.8,1.6-4.6,2.3l0,0c-0.4,0.1-0.7,0.3-1.1,0.5c1.2-0.4,2.4-0.7,3.4-0.9c1.7-0.4,3.2-0.7,4.9-1.6
		C588.9,288,589.8,284.2,589.5,282z"/>
	
		<linearGradient id="SVGID_11_" gradientUnits="userSpaceOnUse" x1="585.0712" y1="102.5366" x2="585.7712" y2="101.6366" gradientTransform="matrix(1 0 0 -1 0 392)">
		<stop  offset="0" style="stop-color:#3F259D;stop-opacity:0"/>
		<stop  offset="1" style="stop-color:#412DAA"/>
	</linearGradient>
	<path class="st25" d="M589.5,282C589.5,282,589.5,282,589.5,282c-0.5,3.4-2.2,5-4.4,6.3c-0.9,0.5-1.7,0.9-2.4,1.2
		c-0.5,0.5-2.8,1.6-4.6,2.3l0,0c-0.4,0.1-0.7,0.3-1.1,0.5c1.2-0.4,2.4-0.7,3.4-0.9c1.7-0.4,3.2-0.7,4.9-1.6
		C588.9,288,589.8,284.2,589.5,282z"/>
</g>
<g>
	<path class="st14" d="M355,73.1c0-3.5,0-5.3,0.7-6.7c0.6-1.2,1.6-2.2,2.8-2.8c1.4-0.7,3.1-0.7,6.7-0.7h7.7c3.5,0,5.3,0,6.7,0.7
		c1.2,0.6,2.2,1.6,2.8,2.8c0.7,1.4,0.7,3.1,0.7,6.7v7.7c0,3.5,0,5.3-0.7,6.7c-0.6,1.2-1.6,2.2-2.8,2.8c-1.4,0.7-3.1,0.7-6.7,0.7
		h-7.7c-3.5,0-5.3,0-6.7-0.7c-1.2-0.6-2.2-1.6-2.8-2.8c-0.7-1.4-0.7-3.1-0.7-6.7V73.1z"/>
	<path class="st15" d="M358,83.7V71.2c0-0.1,0-0.2,0.1-0.2c1.1-0.1,2.3-0.1,3.5-0.1c2.2,0,4.5,0.8,5.6,3c0.5,0.9,0.7,2,0.7,3.2
		c0,0.8-0.1,1.7-0.4,2.5c-0.2,0.7-0.6,1.3-1,1.9c-0.4,0.5-0.9,1-1.4,1.3c-2,1.3-4.7,1.1-7,1C358,83.9,358,83.8,358,83.7z
		 M360.4,73.4v8.1c2.7,0,5-1.1,4.9-4.2C365.4,74.2,363.1,73.2,360.4,73.4z"/>
	<path class="st15" d="M378.3,83.9h-2.2c-0.1,0-0.2-0.1-0.2-0.2c-0.4-2.3-0.9-4.5-1.3-6.8c-0.5,2.3-1,4.5-1.5,6.8
		c0,0.1-0.1,0.2-0.2,0.2h-2.2c-0.1,0-0.2-0.1-0.2-0.2l-2.3-9.4c0-0.1,0-0.2,0.1-0.2h2.2c0.1,0,0.2,0,0.2,0.1c0.5,2.3,0.9,4.6,1.3,7
		c0.4-2.3,1-4.6,1.4-6.9c0-0.1,0-0.2,0.2-0.2h2.3c0.1,0,0.1,0,0.1,0.1c0.5,2.3,0.9,4.6,1.3,7c0.5-2.3,0.8-4.7,1.4-7
		c0-0.1,0.1-0.2,0.2-0.2h2c0.1,0,0.1,0.1,0.1,0.2l-2.5,9.4C378.5,83.8,378.4,83.9,378.3,83.9z"/>
</g>
<g>
	<path class="st26" d="M280.8,305c-3.2,0-6.3-0.9-8.8-2.6c2.2,0.1,6-0.2,8.3-2.5c-3.6-0.2-5.2-2.9-5.4-4.1c0.3,0.1,1.7,0.3,2.6-0.1
		c-4.1-1-4.7-4.6-4.6-5.7c0.8,0.5,2.1,0.7,2.6,0.7c-3.8-2.7-2.4-6.8-1.8-7.7c2.7,3.8,6.8,5.9,11.9,6c-0.1-0.4-0.1-0.9-0.1-1.3
		c0-3.2,2.6-5.8,5.8-5.8c1.7,0,3.2,0.7,4.3,1.9c1.1-0.3,2.8-0.9,3.6-1.4c-0.4,1.5-1.7,2.7-2.5,3.2c0,0,0,0,0,0
		c0.7-0.1,2.5-0.5,3.3-1c-0.4,0.8-1.7,2.2-2.9,3C297.3,296.9,290.3,305,280.8,305z"/>
</g>
<g>
	
		<radialGradient id="SVGID_12_" cx="-423.6173" cy="920.2775" r="1" gradientTransform="matrix(14.5 -21 -21 -14.5 25791.2773 4748.0596)" gradientUnits="userSpaceOnUse">
		<stop  offset="0" style="stop-color:#B13589"/>
		<stop  offset="0.7931" style="stop-color:#C62F94"/>
		<stop  offset="1" style="stop-color:#8A3AC8"/>
	</radialGradient>
	<path class="st27" d="M319,279h16c3.3,0,6,2.7,6,6v16c0,3.3-2.7,6-6,6h-16c-3.3,0-6-2.7-6-6v-16C313,281.7,315.7,279,319,279z"/>
	
		<radialGradient id="SVGID_13_" cx="-429.5388" cy="919.006" r="1" gradientTransform="matrix(9.5 -20.5 -20.5 -9.5 23242.2422 233.0115)" gradientUnits="userSpaceOnUse">
		<stop  offset="0" style="stop-color:#E0E8B7"/>
		<stop  offset="0.4447" style="stop-color:#FB8A2E"/>
		<stop  offset="0.7147" style="stop-color:#E2425C"/>
		<stop  offset="1" style="stop-color:#E2425C;stop-opacity:0"/>
	</radialGradient>
	<path class="st28" d="M319,279h16c3.3,0,6,2.7,6,6v16c0,3.3-2.7,6-6,6h-16c-3.3,0-6-2.7-6-6v-16C313,281.7,315.7,279,319,279z"/>
	
		<radialGradient id="SVGID_14_" cx="-406.4457" cy="872.9661" r="1" gradientTransform="matrix(38.5 -5.5 -1.1764 -8.2348 16986.6172 5233.2495)" gradientUnits="userSpaceOnUse">
		<stop  offset="0.1567" style="stop-color:#406ADC"/>
		<stop  offset="0.4678" style="stop-color:#6A45BE"/>
		<stop  offset="1" style="stop-color:#6A45BE;stop-opacity:0"/>
	</radialGradient>
	<path class="st29" d="M319,279h16c3.3,0,6,2.7,6,6v16c0,3.3-2.7,6-6,6h-16c-3.3,0-6-2.7-6-6v-16C313,281.7,315.7,279,319,279z"/>
	<path class="st0" d="M334,287.5c0,0.8-0.7,1.5-1.5,1.5s-1.5-0.7-1.5-1.5s0.7-1.5,1.5-1.5S334,286.7,334,287.5z"/>
	<path class="st30" d="M327,298c2.8,0,5-2.2,5-5s-2.2-5-5-5s-5,2.2-5,5S324.2,298,327,298z M327,296c1.7,0,3-1.3,3-3s-1.3-3-3-3
		s-3,1.3-3,3S325.3,296,327,296z"/>
	<path class="st30" d="M317,292.6c0-3.4,0-5,0.7-6.3c0.6-1.1,1.5-2,2.6-2.6c1.3-0.7,3-0.7,6.3-0.7h0.8c3.4,0,5,0,6.3,0.7
		c1.1,0.6,2,1.5,2.6,2.6c0.7,1.3,0.7,3,0.7,6.3v0.8c0,3.4,0,5-0.7,6.3c-0.6,1.1-1.5,2-2.6,2.6c-1.3,0.7-3,0.7-6.3,0.7h-0.8
		c-3.4,0-5,0-6.3-0.7c-1.1-0.6-2-1.5-2.6-2.6c-0.7-1.3-0.7-3-0.7-6.3V292.6z M326.6,285h0.8c1.7,0,2.9,0,3.8,0.1
		c0.9,0.1,1.3,0.2,1.6,0.4c0.8,0.4,1.4,1,1.7,1.7c0.2,0.3,0.3,0.8,0.4,1.6c0.1,0.9,0.1,2.1,0.1,3.8v0.8c0,1.7,0,2.9-0.1,3.8
		c-0.1,0.9-0.2,1.3-0.4,1.6c-0.4,0.8-1,1.4-1.7,1.7c-0.3,0.2-0.8,0.3-1.6,0.4c-0.9,0.1-2.1,0.1-3.8,0.1h-0.8c-1.7,0-2.9,0-3.8-0.1
		c-0.9-0.1-1.3-0.2-1.6-0.4c-0.8-0.4-1.4-1-1.7-1.7c-0.2-0.3-0.3-0.8-0.4-1.6c-0.1-0.9-0.1-2.1-0.1-3.8v-0.8c0-1.7,0-2.9,0.1-3.8
		c0.1-0.9,0.2-1.3,0.4-1.6c0.4-0.8,1-1.4,1.7-1.7c0.3-0.2,0.8-0.3,1.6-0.4C323.7,285,324.9,285,326.6,285z"/>
</g>
<g>
	<circle class="st0" cx="411" cy="293" r="14"/>
	<path class="st31" d="M411,307c7.7,0,14-6.3,14-14s-6.3-14-14-14s-14,6.3-14,14c0,5.7,3.4,10.6,8.2,12.8c0-0.2,0-0.3,0-0.4
		c0-0.2,0-0.3,0-0.4c0-0.4,0.3-2.5,0.3-2.5l1.8-7.2c-0.3-0.4-0.5-1.4-0.5-2.1c0-3.3,1.8-4,2.9-4c1.4,0,1.7,1.5,1.7,2.7
		c0,0.6-0.3,1.5-0.6,2.5c-0.3,1-0.7,2.1-0.7,2.8c0,1.4,1.4,2.1,2.3,2.1c2.5,0,4.8-3.1,4.8-6.3s-1.5-6.9-6.3-6.9s-7,3.7-7,6.4
		c0,1.9,0.7,3.3,1.1,3.5c0.1,0.1,0.3,0.4,0.2,0.8c-0.1,0.4-0.3,1.3-0.4,1.6c0,0.1-0.1,0.2-0.5,0.1c-0.4-0.1-3.1-1.8-3.1-6
		c0-4.2,3.3-9.1,9.7-9.1s9.7,4.3,9.7,9.6s-4.3,8.7-7.6,8.7c-2.6,0-3.6-1.2-3.8-1.8l-1,3.8c-0.2,0.6-0.7,1.8-1.2,2.7
		C408.4,306.8,409.7,307,411,307z"/>
</g>
<g>
	
		<linearGradient id="SVGID_15_" gradientUnits="userSpaceOnUse" x1="243" y1="113" x2="243" y2="85.083" gradientTransform="matrix(1 0 0 -1 0 392)">
		<stop  offset="0" style="stop-color:#18ACFE"/>
		<stop  offset="1" style="stop-color:#0163E0"/>
	</linearGradient>
	<circle class="st32" cx="243" cy="293" r="14"/>
	<path class="st0" d="M248.2,297.3l0.6-4h-3.9v-2.6c0-1.1,0.5-2.1,2.3-2.1h1.8v-3.4c0,0-1.6-0.3-3.1-0.3c-3.2,0-5.3,1.9-5.3,5.3v3
		H237v4h3.6v9.6c0.7,0.1,1.4,0.2,2.2,0.2c0.7,0,1.5-0.1,2.2-0.2v-9.6H248.2z"/>
</g>
<g>
	<path class="st30" d="M358.7,306.2l-3.4-4.3c-0.8-1-1.3-2.3-1.3-3.6v-15.5c0-2,1.6-3.6,3.6-3.7l16-1.1c1.2-0.1,2.3,0.2,3.3,0.9
		l5.6,3.8c1,0.7,1.6,1.8,1.6,3v17.6c0,1.9-1.5,3.5-3.5,3.6l-17.7,1.1C361.2,308.1,359.7,307.4,358.7,306.2z"/>
	<path d="M364.2,290.6v-0.2c0-0.5,0.4-0.9,0.9-1l3.9-0.3l5.4,7.9v-6.9l-1.4-0.2v-0.1c0-0.5,0.4-1,1-1l3.5-0.2v0.5
		c0,0.2-0.2,0.4-0.4,0.5l-0.8,0.1V301l-1.1,0.4c-0.9,0.3-1.9,0-2.4-0.8l-5.2-7.8v7.5l1.6,0.3l0,0.1c-0.1,0.5-0.5,0.8-1,0.8l-4,0.2
		c-0.1-0.5,0.3-0.9,0.8-1l0.5-0.1v-10L364.2,290.6z"/>
	<path class="st33" d="M373.7,280l-16,1.1c-1,0.1-1.7,0.8-1.7,1.8v15.5c0,0.9,0.3,1.7,0.9,2.4l3.4,4.3c0.6,0.7,1.4,1.1,2.3,1
		l17.7-1.1c0.9-0.1,1.6-0.8,1.6-1.7v-17.6c0-0.5-0.3-1.1-0.7-1.4l-5.6-3.8C375.1,280.1,374.4,279.9,373.7,280z M358.5,283.1
		c-0.2-0.2-0.1-0.5,0.2-0.5l15.1-1.1c0.5,0,1,0.1,1.3,0.4l3,2.1c0.1,0.1,0.1,0.3-0.1,0.3l-16,0.9c-0.5,0-1-0.1-1.3-0.4L358.5,283.1z
		 M361.3,287.8c0-0.5,0.4-0.9,1-1l16.9-0.9c0.5,0,1,0.4,1,0.9v15.3c0,0.5-0.4,0.9-1,1l-16.8,1c-0.6,0-1.1-0.4-1.1-1V287.8z"/>
</g>
<g>
	<circle class="st34" cx="453" cy="293" r="14"/>
	<path class="st30" d="M443.9,299v-12.2h5.6c1.8,0,3.3,1.5,3.3,3.3c0,1.2-0.4,1.9-1.7,2.6c1.6,0.7,2,1.7,2,3.1
		c0,1.9-1.6,3.3-3.5,3.3H443.9z M446.3,288.8v2.9h2.8c0,0,1.4,0,1.4-1.5c0-1.5-1.4-1.5-1.4-1.5H446.3z M446.3,296.9v-3.2h3
		c0.5,0,1.5,0.2,1.5,1.8c0,1.1-1,1.4-1.5,1.4H446.3z"/>
	<path class="st30" d="M458.2,290.1c-1.7,0-4.3,1.2-4.3,4.5c0,2,1.1,4.6,4.4,4.6c2.6,0,3.8-1.9,4.1-2.9H460
		c-0.1,0.4-0.6,0.9-1.6,0.9c-1.5,0-2-1.3-2.1-1.9h6.2v-0.7C462.5,291.3,460,290.1,458.2,290.1z M458.2,292c-1.4,0-1.9,1.2-2,1.7h3.8
		C460,293.1,459.6,292,458.2,292z"/>
	<path class="st0" d="M455.3,287.4v1.5h5.9v-1.5H455.3z"/>
</g>
<g>
	
		<linearGradient id="SVGID_16_" gradientUnits="userSpaceOnUse" x1="250.79" y1="277.0002" x2="250.79" y2="249" gradientTransform="matrix(1 0 0 -1 0 392)">
		<stop  offset="0" style="stop-color:#32B5F1"/>
		<stop  offset="1" style="stop-color:#2B9FED"/>
	</linearGradient>
	<path class="st35" d="M248,116.1c0-0.9-1-0.9-1.4-0.8c0.6-0.5,1.3-0.4,1.6-0.2l5.9,2.9c0.6,0.3,0.9,0.9,0.9,1.5v19.1
		c0,0.6-0.4,1.2-0.9,1.5l-5.6,2.6c-0.4,0.2-1.2,0.6-1.9,0c0.9,0.2,1.3-0.5,1.4-0.9V116.1z"/>
	
		<linearGradient id="SVGID_17_" gradientUnits="userSpaceOnUse" x1="247.945" y1="273.5339" x2="227.965" y2="256.763" gradientTransform="matrix(1 0 0 -1 0 392)">
		<stop  offset="0" style="stop-color:#0F6FB3"/>
		<stop  offset="0.2706" style="stop-color:#1279B7"/>
		<stop  offset="0.4214" style="stop-color:#1176B5"/>
		<stop  offset="0.6182" style="stop-color:#0E69AC"/>
		<stop  offset="0.8553" style="stop-color:#0F70AF"/>
		<stop  offset="1" style="stop-color:#0F6DAD"/>
	</linearGradient>
	<path class="st36" d="M246.7,115.3c0.5-0.1,1.4,0,1.4,0.8v6.6l-17.9,13.6c-0.3,0.2-0.8,0.2-1-0.1l-1.8-2c-0.3-0.3-0.3-0.8,0-1.1
		L246.7,115.3L246.7,115.3z"/>
	
		<linearGradient id="SVGID_18_" gradientUnits="userSpaceOnUse" x1="228.0521" y1="268.8917" x2="247.9761" y2="252.3947" gradientTransform="matrix(1 0 0 -1 0 392)">
		<stop  offset="0" style="stop-color:#1791D2"/>
		<stop  offset="1" style="stop-color:#1173C5"/>
	</linearGradient>
	<path class="st37" d="M248,135.4l-17.9-13.6c-0.3-0.2-0.8-0.2-1,0.1l-1.8,2c-0.3,0.3-0.3,0.8,0,1.1l19.3,17.7
		c0.9,0.2,1.3-0.5,1.4-0.9V135.4z"/>
</g>
<g>
	<path class="st38" d="M495,279c0,0,8.3-0.4,12.6,7.9h-13.3c0,0-2.5-0.1-4.7,3c-0.6,1.3-1.3,2.6-0.5,5.2c-1.1-1.8-5.7-9.8-5.7-9.8
		S486.7,279.3,495,279L495,279z"/>
	<path class="st39" d="M507.2,300c0,0-3.8,7.3-13.2,6.9c1.2-2,6.7-11.5,6.7-11.5s1.3-2.1-0.2-5.5c-0.8-1.2-1.6-2.4-4.2-3.1
		c2.1,0,11.4,0,11.4,0S511.1,292.6,507.2,300z"/>
	<path class="st40" d="M482.9,300c0,0-4.4-6.9,0.6-14.8c1.2,2,6.7,11.5,6.7,11.5s1.2,2.2,4.9,2.5c1.4-0.1,2.9-0.2,4.8-2.1
		c-1,1.8-5.7,9.8-5.7,9.8S487.3,307.1,482.9,300L482.9,300z"/>
	<path class="st41" d="M494,307l1.9-7.8c0,0,2.1-0.2,3.8-2C498.6,299,494,307,494,307z"/>
	<path class="st0" d="M488.7,293.1c0-3.4,2.8-6.2,6.2-6.2s6.2,2.8,6.2,6.2c0,3.4-2.8,6.2-6.2,6.2
		C491.5,299.3,488.7,296.5,488.7,293.1z"/>
	
		<linearGradient id="SVGID_19_" gradientUnits="userSpaceOnUse" x1="494.966" y1="104.02" x2="494.966" y2="94.041" gradientTransform="matrix(1 0 0 -1 0 392)">
		<stop  offset="0" style="stop-color:#86BBE5"/>
		<stop  offset="1" style="stop-color:#1072BA"/>
	</linearGradient>
	<path class="st42" d="M489.8,293.1c0-2.9,2.3-5.2,5.2-5.2c2.9,0,5.2,2.3,5.2,5.2c0,2.9-2.3,5.2-5.2,5.2
		C492.1,298.3,489.8,295.9,489.8,293.1z"/>
	<path class="st43" d="M507.6,286.9l-7.7,2.3c0,0-1.2-1.7-3.7-2.3C498.4,286.9,507.6,286.9,507.6,286.9z"/>
	<path class="st44" d="M488.9,294.8c-1.1-1.9-5.5-9.5-5.5-9.5l5.7,5.6c0,0-0.6,1.2-0.4,2.9L488.9,294.8L488.9,294.8z"/>
</g>
<g>
	<path class="st45" d="M107,141l-2-25h24l-2,25l-10,3L107,141z"/>
	<path class="st46" d="M127,118h-10v24.5l8-2.5L127,118z"/>
	<path class="st0" d="M120.5,130.5h-10L110,127l8-2.5h-8l-0.5-3H125l-0.5,3.5l-6.5,2.5h6l-1,9.5l-6,2l-6-2l-0.5-5h3l0.5,2.5l3,1l3-1
		L120.5,130.5z"/>
</g>
<g>
	<path class="st47" d="M149,141l-2-25h24l-2,25l-10,3L149,141z"/>
	<path class="st48" d="M169,118h-10v24.5l8-2.5L169,118z"/>
	<path class="st0" d="M152.5,130.5l-1-9.5H167l-0.5,3h-12l0.5,3.5h11l-1,9.5l-6,2l-6-2l-0.5-5h3l0.5,2.5l3,1l3-1l0.5-4H152.5z"/>
</g>
<g>
	<rect x="187" y="115" class="st49" width="28" height="28"/>
	<path class="st50" d="M204,138.3l2.1-1.4c0.2,0.5,1.2,1.7,2.5,1.7c1.3,0,1.9-0.7,1.9-1.2c0-1.3-1.3-1.7-2-1.9
		c-0.1,0-0.2-0.1-0.2-0.1c0,0-0.1,0-0.1-0.1c-0.7-0.3-3.3-1.3-3.3-4.1c0-3.2,3.1-3.5,3.8-3.5c0.5,0,2.6,0.1,3.7,2.1l-2,1.4
		c-0.4-0.9-1.2-1.2-1.6-1.2c-1.1,0-1.3,0.8-1.3,1.2c0,1,1.2,1.5,2.2,1.9c0.3,0.1,0.5,0.2,0.7,0.3c1.1,0.5,2.7,1.4,2.7,4.1
		c0,1.4-1.1,3.5-4,3.5C205.2,141,204.2,138.7,204,138.3z"/>
	<path class="st50" d="M194,138.6l2.1-1.4c0.2,0.5,0.8,1.4,1.8,1.4c0.9,0,1.4-1,1.4-1.4V128h2.6v9.2c0,1.3-0.7,3.8-3.8,3.8
		C195.4,141,194.2,139.3,194,138.6z"/>
</g>
<g>
	<path class="st51" d="M271,117l14,24l14-24h-5.5l-8.5,14.5l-8.5-14.5H271z"/>
	<path class="st52" d="M276.5,117l8.5,14.5l8.5-14.5h-5l-3.4,6l-3.6-6H276.5z"/>
</g>
<g>
	<path class="st53" d="M329.7,129c0-1.4-1.2-2.6-2.7-2.6c-1.5,0-2.7,1.2-2.7,2.6c0,1.4,1.2,2.6,2.7,2.6
		C328.5,131.6,329.7,130.4,329.7,129z"/>
	<path class="st54" d="M335.7,124.2c0.6-2.2,1.3-6.4-1.2-7.8c-2.5-1.4-5.7,1.3-7.5,2.9c-1.7-1.6-5-4.3-7.6-2.8
		c-2.5,1.4-1.7,5.5-1.1,7.7c-2.3,0.6-6.3,2-6.3,4.8c0,2.8,4,4.3,6.3,5c-0.6,2.3-1.3,6.3,1.2,7.7c2.5,1.4,5.8-1.2,7.6-2.8
		c1.7,1.6,4.9,4.2,7.4,2.8c2.5-1.4,1.9-5.5,1.3-7.7c2.2-0.6,6.2-2.1,6.2-4.9C342,126.2,338,124.8,335.7,124.2z M335.4,132.7
		c-0.4-1.2-0.9-2.4-1.5-3.7c0.6-1.2,1.1-2.5,1.5-3.6c1.7,0.5,5.4,1.6,5.4,3.6C340.7,131.1,337.2,132.2,335.4,132.7z M333.9,140.5
		c-1.9,1-4.6-1.5-5.9-2.6c0.8-0.9,1.7-1.9,2.5-3.1c1.5-0.1,2.8-0.3,4.1-0.6C334.9,135.8,335.7,139.5,333.9,140.5z M320.1,140.5
		c-1.9-1-1-4.6-0.6-6.3c1.2,0.3,2.6,0.5,4,0.6c0.8,1.1,1.7,2.2,2.6,3.1C325.1,138.9,322,141.6,320.1,140.5z M313.3,129
		c0-2.1,3.7-3.2,5.4-3.6c0.4,1.2,0.9,2.4,1.5,3.7c-0.6,1.3-1.1,2.5-1.5,3.7C317,132.3,313.3,131.1,313.3,129z M320.1,117.5
		c1.9-1,4.8,1.5,6,2.7c-0.9,0.9-1.7,1.9-2.6,3.1c-1.4,0.1-2.8,0.3-4,0.6C319.1,122,318.2,118.6,320.1,117.5z M331.4,124.6
		c1,0.1,1.9,0.3,2.7,0.5c-0.3,0.8-0.6,1.6-1,2.5C332.6,126.5,332,125.5,331.4,124.6z M327,121c0.6,0.6,1.2,1.3,1.8,2.1
		c-1.2-0.1-2.4-0.1-3.5,0C325.8,122.4,326.4,121.7,327,121z M320.9,127.5c-0.4-0.9-0.7-1.7-1-2.5c0.9-0.2,1.8-0.3,2.7-0.5
		C322,125.5,321.4,126.5,320.9,127.5z M322.6,133.5c-1-0.1-1.9-0.3-2.8-0.4c0.3-0.8,0.6-1.7,1-2.6
		C321.4,131.5,322,132.5,322.6,133.5z M327,137c-0.6-0.6-1.2-1.3-1.8-2.1c1.2,0,2.4,0,3.6,0C328.2,135.7,327.6,136.4,327,137z
		 M333.2,130.4c0.4,0.9,0.7,1.7,1,2.6c-0.9,0.2-1.8,0.3-2.8,0.5C332,132.5,332.6,131.5,333.2,130.4z M329.7,133.6
		c-1.8,0.1-3.6,0.1-5.5,0c-1-1.5-2-3-2.7-4.6c0.8-1.6,1.7-3.1,2.7-4.6c1.8-0.1,3.6-0.1,5.5,0c1,1.5,1.9,3,2.7,4.6
		C331.7,130.6,330.8,132.1,329.7,133.6z M333.8,117.5c1.9,1,1,4.8,0.6,6.4c-1.2-0.3-2.6-0.5-4-0.6c-0.8-1.1-1.7-2.2-2.5-3.1
		C329.2,119,332,116.4,333.8,117.5z"/>
</g>
<g>
	<path class="st0" d="M523,289c0-3.5,0-5.2,0.7-6.6c0.6-1.2,1.5-2.1,2.7-2.7c1.3-0.7,3.1-0.7,6.6-0.7h8.1c3.5,0,5.2,0,6.6,0.7
		c1.2,0.6,2.1,1.5,2.7,2.7c0.7,1.3,0.7,3.1,0.7,6.6v8.1c0,3.5,0,5.2-0.7,6.6c-0.6,1.2-1.5,2.1-2.7,2.7c-1.3,0.7-3.1,0.7-6.6,0.7H533
		c-3.5,0-5.2,0-6.6-0.7c-1.2-0.6-2.1-1.5-2.7-2.7c-0.7-1.3-0.7-3.1-0.7-6.6V289z"/>
	<path class="st55" d="M537,289.5l-3.5-6.1c0.1-0.1,0.2-0.2,0.4-0.2c-1,0.3-1.5,1.5-1.5,1.5l-6.3,11.2c-0.1,0.4-0.1,0.7-0.1,0.9h6.9
		L537,289.5z"/>
	<path class="st56" d="M537,289.5l4.1,7.2h6.9c0-0.3,0-0.6-0.1-0.9l-6.3-11.2c0,0-0.5-1.1-1.5-1.5c0.1,0.1,0.3,0.1,0.4,0.2
		L537,289.5z"/>
	<path class="st57" d="M537,289.5l3.5-6.1c-0.1-0.1-0.2-0.2-0.4-0.2c-0.2,0-0.3-0.1-0.5-0.1h-0.2h-4.8h-0.2c-0.2,0-0.3,0-0.5,0.1
		c-0.1,0.1-0.3,0.1-0.4,0.2L537,289.5z"/>
	<path class="st58" d="M532.9,296.7l-3.4,6c0,0-0.1-0.1-0.3-0.2c0.5,0.4,1,0.5,1,0.5h13.4c0.7,0,0.9-0.3,0.9-0.3c0,0,0,0,0,0l-3.4-6
		H532.9z"/>
	<path class="st59" d="M532.9,296.7H526c0,0.8,0.4,1.3,0.4,1.3l0.3,0.5c0,0,0,0,0,0l0.6,1l1.3,2.2c0,0.1,0.1,0.2,0.1,0.2
		c0,0,0,0.1,0.1,0.1c0,0,0,0,0,0c0.2,0.2,0.3,0.4,0.5,0.5c0.2,0.1,0.3,0.2,0.3,0.2L532.9,296.7z"/>
	<path class="st60" d="M541.1,296.7h6.9c0,0.8-0.4,1.3-0.4,1.3l-0.3,0.5c0,0,0,0,0,0l-0.6,1l-1.3,2.2c0,0.1-0.1,0.2-0.1,0.2
		c0,0,0,0.1-0.1,0.1c0,0,0,0,0,0c-0.2,0.2-0.3,0.4-0.5,0.5c-0.2,0.1-0.3,0.2-0.3,0.2L541.1,296.7z"/>
</g>
<g>
	<g>
		<defs>
			<rect id="SVGID_20_" x="102" y="166" width="29.2" height="29.2"/>
		</defs>
		<clipPath id="SVGID_21_">
			<use xlink:href="#SVGID_20_"  style="overflow:visible;"/>
		</clipPath>
		<g class="st61">
			<path class="st62" d="M111.1,167.8h18.3c1,0,1.8,0.8,1.8,1.8v21.9c0,1-0.8,1.8-1.8,1.8h-18.3c-1,0-1.8-0.8-1.8-1.8v-21.9
				C109.3,168.6,110.1,167.8,111.1,167.8z"/>
			
				<linearGradient id="SVGID_22_" gradientUnits="userSpaceOnUse" x1="109.304" y1="201.8045" x2="131.217" y2="201.8045" gradientTransform="matrix(1 0 0 -1 0 392)">
				<stop  offset="0" style="stop-color:#163C27"/>
				<stop  offset="1" style="stop-color:#2A6043"/>
			</linearGradient>
			<path class="st63" d="M109.3,187h21.9v4.6c0,1-0.8,1.8-1.8,1.8h-18.3c-1,0-1.8-0.8-1.8-1.8V187z"/>
			<rect x="120.3" y="180.6" class="st64" width="11" height="6.4"/>
			<rect x="120.3" y="174.2" class="st65" width="11" height="6.4"/>
			<path class="st66" d="M109.3,169.7c0-1,0.8-1.8,1.8-1.8h9.1v6.4h-11V169.7z"/>
			<rect x="109.3" y="174.2" class="st67" width="11" height="6.4"/>
			<rect x="109.3" y="180.6" class="st68" width="11" height="6.4"/>
			<path class="st69" d="M109.3,177c0-1.5,1.2-2.7,2.7-2.7h5.5c1.5,0,2.7,1.2,2.7,2.7v11c0,1.5-1.2,2.7-2.7,2.7h-8.2V177z"/>
			
				<linearGradient id="SVGID_23_" gradientUnits="userSpaceOnUse" x1="102" y1="211.3916" x2="118.4348" y2="211.3916" gradientTransform="matrix(1 0 0 -1 0 392)">
				<stop  offset="0" style="stop-color:#185A30"/>
				<stop  offset="1" style="stop-color:#176F3D"/>
			</linearGradient>
			<path class="st70" d="M103.8,172.4h12.8c1,0,1.8,0.8,1.8,1.8V187c0,1-0.8,1.8-1.8,1.8h-12.8c-1,0-1.8-0.8-1.8-1.8v-12.8
				C102,173.2,102.8,172.4,103.8,172.4z"/>
			<path class="st0" d="M113.9,185.2l-2.6-4.7l2.5-4.5h-2l-1.5,2.9l-1.5-2.9h-2.1l2.5,4.5l-2.6,4.7h2l1.6-3l1.6,3H113.9z"/>
		</g>
	</g>
</g>
<g>
	<g>
		<defs>
			<rect id="SVGID_24_" x="144" y="167" width="29.2" height="29.2"/>
		</defs>
		<clipPath id="SVGID_25_">
			<use xlink:href="#SVGID_24_"  style="overflow:visible;"/>
		</clipPath>
		<g class="st71">
			
				<linearGradient id="SVGID_26_" gradientUnits="userSpaceOnUse" x1="151.304" y1="210.3914" x2="173.217" y2="210.3914" gradientTransform="matrix(1 0 0 -1 0 392)">
				<stop  offset="0" style="stop-color:#2B78B1"/>
				<stop  offset="1" style="stop-color:#338ACD"/>
			</linearGradient>
			<path class="st72" d="M153.1,168.8h18.3c1,0,1.8,0.8,1.8,1.8v21.9c0,1-0.8,1.8-1.8,1.8h-18.3c-1,0-1.8-0.8-1.8-1.8v-21.9
				C151.3,169.6,152.1,168.8,153.1,168.8z"/>
			
				<linearGradient id="SVGID_27_" gradientUnits="userSpaceOnUse" x1="151.304" y1="200.8045" x2="173.217" y2="200.8045" gradientTransform="matrix(1 0 0 -1 0 392)">
				<stop  offset="0" style="stop-color:#1B366F"/>
				<stop  offset="1" style="stop-color:#2657B0"/>
			</linearGradient>
			<path class="st73" d="M151.3,188h21.9v4.6c0,1-0.8,1.8-1.8,1.8h-18.3c-1,0-1.8-0.8-1.8-1.8V188z"/>
			
				<linearGradient id="SVGID_28_" gradientUnits="userSpaceOnUse" x1="160.891" y1="207.1953" x2="173.217" y2="207.1953" gradientTransform="matrix(1 0 0 -1 0 392)">
				<stop  offset="0" style="stop-color:#20478B"/>
				<stop  offset="1" style="stop-color:#2D6FD1"/>
			</linearGradient>
			<rect x="151.3" y="181.6" class="st74" width="21.9" height="6.4"/>
			
				<linearGradient id="SVGID_29_" gradientUnits="userSpaceOnUse" x1="160.891" y1="213.5873" x2="173.217" y2="213.5873" gradientTransform="matrix(1 0 0 -1 0 392)">
				<stop  offset="0" style="stop-color:#215295"/>
				<stop  offset="1" style="stop-color:#2E84D3"/>
			</linearGradient>
			<rect x="151.3" y="175.2" class="st75" width="21.9" height="6.4"/>
			<path class="st69" d="M151.3,178c0-1.5,1.2-2.7,2.7-2.7h5.5c1.5,0,2.7,1.2,2.7,2.7v11c0,1.5-1.2,2.7-2.7,2.7h-8.2V178z"/>
			
				<linearGradient id="SVGID_30_" gradientUnits="userSpaceOnUse" x1="144" y1="210.3916" x2="161.3481" y2="210.3916" gradientTransform="matrix(1 0 0 -1 0 392)">
				<stop  offset="0" style="stop-color:#223E74"/>
				<stop  offset="1" style="stop-color:#215091"/>
			</linearGradient>
			<path class="st76" d="M145.8,173.4h12.8c1,0,1.8,0.8,1.8,1.8V188c0,1-0.8,1.8-1.8,1.8h-12.8c-1,0-1.8-0.8-1.8-1.8v-12.8
				C144,174.2,144.8,173.4,145.8,173.4z"/>
			<path class="st0" d="M157.7,177.1h-1.8l-1.4,6l-1.5-6h-1.5l-1.5,6l-1.4-6h-1.8l2.4,9.1h1.6l1.5-5.8l1.5,5.8h1.6L157.7,177.1z"/>
		</g>
	</g>
</g>
<g>
	
		<linearGradient id="SVGID_31_" gradientUnits="userSpaceOnUse" x1="188.7394" y1="211.391" x2="214.3046" y2="211.391" gradientTransform="matrix(1 0 0 -1 0 392)">
		<stop  offset="0" style="stop-color:#A73A24"/>
		<stop  offset="1" style="stop-color:#F75936"/>
	</linearGradient>
	<circle class="st77" cx="201.5" cy="180.6" r="12.8"/>
	<defs>
		<filter id="Adobe_OpacityMaskFilter" filterUnits="userSpaceOnUse" x="186.9" y="166" width="31" height="24.7">
			<feColorMatrix  type="matrix" values="1 0 0 0 0  0 1 0 0 0  0 0 1 0 0  0 0 0 1 0"/>
		</filter>
	</defs>
	<mask maskUnits="userSpaceOnUse" x="186.9" y="166" width="31" height="24.7" id="mask0_4_137_1_">
		<circle class="st78" cx="201.5" cy="180.6" r="12.8"/>
	</mask>
	<g class="st79">
		
			<linearGradient id="SVGID_32_" gradientUnits="userSpaceOnUse" x1="214.761" y1="218.2392" x2="202.435" y2="218.2392" gradientTransform="matrix(1 0 0 -1 0 392)">
			<stop  offset="0" style="stop-color:#FDB8A3"/>
			<stop  offset="1" style="stop-color:#F1876D"/>
		</linearGradient>
		<rect x="202.4" y="166" class="st80" width="15.5" height="15.5"/>
		<path class="st69" d="M191.5,177c0-1.5,1.2-2.7,2.7-2.7h7.3c1.5,0,2.7,1.2,2.7,2.7v11c0,1.5-1.2,2.7-2.7,2.7h-10V177z"/>
		<rect x="186.9" y="166" class="st81" width="15.5" height="15.5"/>
	</g>
	
		<linearGradient id="SVGID_33_" gradientUnits="userSpaceOnUse" x1="186" y1="211.3916" x2="202.4348" y2="211.3916" gradientTransform="matrix(1 0 0 -1 0 392)">
		<stop  offset="0" style="stop-color:#A73A24"/>
		<stop  offset="1" style="stop-color:#F75936"/>
	</linearGradient>
	<path class="st82" d="M187.8,172.4h12.8c1,0,1.8,0.8,1.8,1.8V187c0,1-0.8,1.8-1.8,1.8h-12.8c-1,0-1.8-0.8-1.8-1.8v-12.8
		C186,173.2,186.8,172.4,187.8,172.4z"/>
	<path class="st0" d="M197.9,179.2c0-2-1.3-3.2-3.4-3.2h-3v9.1h1.9v-2.8h1.1C196.4,182.4,197.9,181.3,197.9,179.2z M196,179.2
		c0,0.9-0.6,1.5-1.5,1.5h-1.1v-2.9h1.1C195.4,177.8,196,178.2,196,179.2z"/>
</g>
<g>
	<path class="st33" d="M368.8,116c-7.6,0-13.8,6.2-13.8,13.8c0,6.1,4,11.3,9.5,13.1c0.7,0.1,1-0.3,1-0.7c0-0.3,0-1.4,0-2.6
		c-3.5,0.6-4.4-0.8-4.7-1.6c-0.2-0.4-0.8-1.6-1.4-2c-0.5-0.3-1.2-0.9,0-0.9c1.1,0,1.9,1,2.1,1.4c1.2,2.1,3.2,1.5,4,1.1
		c0.1-0.9,0.5-1.5,0.9-1.9c-3.1-0.3-6.3-1.5-6.3-6.8c0-1.5,0.5-2.8,1.4-3.7c-0.1-0.3-0.6-1.8,0.1-3.7c0,0,1.2-0.4,3.8,1.4
		c1.1-0.3,2.3-0.5,3.5-0.5c1.2,0,2.4,0.2,3.5,0.5c2.6-1.8,3.8-1.4,3.8-1.4c0.8,1.9,0.3,3.3,0.1,3.7c0.9,1,1.4,2.2,1.4,3.7
		c0,5.3-3.2,6.5-6.3,6.8c0.5,0.4,0.9,1.3,0.9,2.6c0,1.9,0,3.3,0,3.8c0,0.4,0.3,0.8,1,0.7c5.5-1.8,9.4-7,9.4-13.1
		C382.7,122.2,376.5,116,368.8,116z"/>
</g>
<g>
	<path class="st83" d="M467,69.3c0-3.7-3-6.7-6.7-6.7h-14.7c-3.7,0-6.7,3-6.7,6.7v14.6c0,3.7,3,6.7,6.7,6.7H467V69.3z"/>
	<g>
		<path class="st84" d="M454.1,87.2c-0.6,0-1.1-0.1-1.6-0.3c-0.6-0.2-1.1-0.5-1.6-0.8c-0.2-0.2-0.5-0.4-0.7-0.6c0,0-0.1-0.1-0.1,0
			c-0.5,0.1-0.9,0.1-1.4,0.1c-0.4,0-0.7-0.1-1.1-0.2c-0.5-0.1-0.9-0.3-1.3-0.6c-0.6-0.4-1.2-0.9-1.6-1.6c-0.2-0.3-0.4-0.6-0.5-1
			c-0.3-0.6-0.4-1.3-0.4-2c0-0.5,0.1-1,0.2-1.5c0-0.1,0-0.1,0-0.2c-0.5-0.6-0.8-1.2-1.1-1.9c-0.2-0.6-0.3-1.1-0.2-1.7
			c0-1,0.3-1.9,0.9-2.8c0.3-0.5,0.7-1,1.2-1.3c0.5-0.4,1.1-0.7,1.8-0.9c0.1,0,0.2,0,0.2-0.1c0.1,0,0.1,0,0.1-0.1
			c0.1-0.3,0.3-0.7,0.4-1c0.4-0.8,1-1.4,1.8-1.8c0.5-0.3,1-0.5,1.5-0.6c0.5-0.1,1.1-0.2,1.6-0.1c0.6,0,1.2,0.2,1.8,0.4
			c0.4,0.2,0.7,0.4,1.1,0.6c0.2,0.2,0.5,0.4,0.7,0.6c0,0.1,0.1,0.1,0.2,0.1c0.5-0.1,1-0.1,1.5-0.1c0.5,0,1.1,0.2,1.6,0.4
			c0.5,0.2,1,0.5,1.4,0.9c0.5,0.4,0.8,0.9,1.1,1.4c0.2,0.4,0.4,0.9,0.5,1.3c0.2,0.7,0.2,1.4,0.1,2.1c0,0.2-0.1,0.5-0.2,0.7
			c0,0.1,0,0.1,0,0.2c0.4,0.4,0.7,0.9,0.9,1.4c0.2,0.5,0.4,1.1,0.4,1.7c0,0.6,0,1.2-0.2,1.8c-0.2,0.5-0.4,1-0.7,1.5
			c-0.3,0.5-0.8,1-1.3,1.3c-0.6,0.4-1.2,0.7-1.8,0.9c0,0-0.1,0-0.1,0c-0.1,0-0.1,0-0.1,0.1c-0.2,0.7-0.6,1.2-1,1.8
			c-0.5,0.6-1.1,1-1.8,1.3c-0.5,0.3-1.1,0.4-1.7,0.5C454.4,87.1,454.3,87.2,454.1,87.2z M454.9,75.4
			C454.9,75.4,454.8,75.3,454.9,75.4c-0.7-0.4-1.2-0.7-1.8-1.1c-0.1,0-0.1,0-0.2,0c0,0,0,0,0,0c-0.6,0.4-1.2,0.7-1.9,1.1
			c-0.1,0-0.1,0.1-0.1,0.1c0,0.4,0,0.7,0,1.1c0,0.4,0,0.7,0,1.1c0,0.1,0,0.1,0.1,0.1c0.1,0,0.2,0.1,0.3,0.2c0.6,0.3,1.1,0.6,1.7,1
			c0.1,0,0.1,0,0.1,0c0.2-0.1,0.4-0.2,0.6-0.4c0.1-0.1,0.3-0.2,0.4-0.2c0.3-0.2,0.6-0.3,0.9-0.5c0.1,0,0.1-0.1,0.1-0.1
			c0-0.7,0-1.4,0-2.1C455.1,75.4,455.1,75.4,454.9,75.4z M446.6,73.9c0-0.8,0-1.6,0-2.4c0,0,0,0,0-0.1c0,0,0,0,0,0c0,0,0,0,0,0
			c-0.4,0.2-0.9,0.4-1.2,0.8c-0.4,0.4-0.8,0.9-1,1.4c-0.2,0.5-0.3,1-0.3,1.5c0,0.4,0.1,0.7,0.2,1.1c0.2,0.6,0.5,1.1,0.9,1.6
			c0.3,0.3,0.6,0.5,1,0.7c0.5,0.3,0.9,0.5,1.4,0.8c0.8,0.5,1.7,1,2.5,1.5c0,0,0.1,0,0.1,0c0.6-0.3,1.1-0.6,1.7-1
			c0.1,0,0.1-0.1,0-0.1c-0.4-0.2-0.8-0.5-1.2-0.7c-0.9-0.5-1.9-1.1-2.8-1.6c-0.2-0.1-0.5-0.3-0.7-0.4c-0.2-0.1-0.4-0.4-0.4-0.6
			c0,0,0-0.1,0-0.1C446.6,75.4,446.6,74.6,446.6,73.9z M451.6,84.9C451.6,84.9,451.6,84.9,451.6,84.9c0.1,0.1,0.2,0.2,0.3,0.2
			c0.5,0.3,1,0.6,1.6,0.6c0.5,0.1,0.9,0.1,1.4,0c0.7-0.1,1.3-0.4,1.8-0.9c0.4-0.4,0.8-0.8,1-1.4c0.2-0.5,0.3-1.1,0.3-1.6
			c0-1.5,0-3,0-4.5c0-0.1,0-0.1-0.1-0.1c-0.5-0.3-1.1-0.6-1.6-0.9c-0.1-0.1-0.1-0.1-0.1,0.1c0,1.6,0,3.2,0,4.8c0,0.2,0,0.5,0,0.7
			c0,0.1,0,0.1,0,0.2c-0.1,0.2-0.2,0.3-0.3,0.4c-0.4,0.2-0.7,0.4-1.1,0.6C453.7,83.6,452.7,84.2,451.6,84.9
			C451.6,84.8,451.6,84.9,451.6,84.9z M450.9,73.1c0,0.2,0,0.4,0,0.6c0,0.1,0,0.2,0,0.3c0,0.1,0,0.1,0.1,0c0,0,0,0,0,0
			c0.6-0.4,1.2-0.7,1.8-1.1c0.7-0.4,1.4-0.8,2.1-1.2c0.3-0.2,0.6-0.3,0.9-0.5c0.1-0.1,0.2-0.1,0.4-0.1c0.1,0,0.2,0,0.4,0.1
			c0.2,0.1,0.5,0.3,0.7,0.4c0.9,0.5,1.8,1,2.6,1.5c0.3,0.2,0.6,0.3,0.9,0.5c0.1,0,0.1,0,0.1,0c0.1-0.5,0.1-1.1-0.1-1.6
			c-0.2-0.6-0.4-1.1-0.8-1.5c-0.5-0.6-1.1-1-1.8-1.2c-0.5-0.2-1.1-0.2-1.7-0.2c-0.5,0.1-1,0.2-1.4,0.5c-0.3,0.2-0.6,0.4-1,0.5
			c-1,0.6-2.1,1.2-3.1,1.8c-0.1,0-0.1,0.1-0.1,0.1C450.9,72.5,450.9,72.8,450.9,73.1z M454.2,73.6C454.2,73.6,454.2,73.6,454.2,73.6
			c0.3,0.2,0.5,0.3,0.7,0.4c0.9,0.5,1.8,1,2.7,1.6c0.5,0.3,1,0.6,1.5,0.8c0.2,0.1,0.3,0.2,0.3,0.4c0,0.1,0,0.2,0,0.3
			c0,1.6,0,3.1,0,4.7c0,0.1,0,0.1,0,0.2c0,0,0,0.1,0.1,0c0.1,0,0.2-0.1,0.3-0.1c0.8-0.4,1.4-0.9,1.8-1.7c0.2-0.5,0.4-0.9,0.4-1.4
			c0-0.4,0-0.9-0.1-1.3c-0.2-1-0.8-1.7-1.6-2.3c-0.2-0.2-0.5-0.3-0.7-0.4c-0.6-0.3-1.2-0.7-1.7-1c-0.6-0.3-1.2-0.7-1.8-1
			c0,0-0.1,0-0.1,0C455.4,72.9,454.8,73.2,454.2,73.6C454.2,73.6,454.2,73.6,454.2,73.6z M448,73.7C448,73.7,448,73.7,448,73.7
			c0,0.8,0,1.6,0,2.4c0,0.1,0,0.1,0.1,0.2c0.4,0.3,0.9,0.5,1.3,0.8c0.1,0.1,0.2,0.1,0.3,0.2c0.1,0,0.1,0,0.1,0c0,0,0-0.1,0-0.1
			c0-1.8,0-3.5,0-5.3c0-0.1,0-0.1,0-0.2c0-0.2,0.1-0.4,0.3-0.5c0.1,0,0.1-0.1,0.2-0.1c0.4-0.3,0.9-0.5,1.3-0.8
			c0.8-0.5,1.6-0.9,2.4-1.4c0.1-0.1,0.3-0.2,0.4-0.2c0.1,0,0.1,0,0-0.1c0,0-0.1-0.1-0.1-0.1c-0.8-0.6-1.7-0.8-2.6-0.8
			c-0.4,0-0.9,0.1-1.3,0.3c-0.4,0.2-0.8,0.4-1.1,0.7c-0.5,0.4-0.8,0.9-1,1.5c-0.2,0.5-0.2,1-0.2,1.5C448,72.3,448,73,448,73.7z
			 M455.1,80.3c0-0.3,0-0.6,0-0.9c0,0,0-0.1,0-0.1c0,0,0-0.1-0.1,0c0,0,0,0,0,0c-0.8,0.5-1.7,1-2.5,1.5c-0.8,0.4-1.5,0.9-2.3,1.3
			c-0.3,0.2-0.5,0.1-0.8,0c-0.4-0.3-0.9-0.5-1.3-0.7c-1-0.6-1.9-1.1-2.9-1.7c0,0,0,0-0.1,0c0,0,0,0,0,0c0,0,0,0,0,0
			c-0.1,0.4-0.1,0.8,0,1.2c0.1,0.5,0.3,1,0.5,1.4c0.2,0.3,0.5,0.6,0.8,0.9c0.3,0.2,0.6,0.4,0.9,0.6c0.4,0.2,0.9,0.3,1.3,0.4
			c0.4,0,0.7,0,1.1,0c0.5-0.1,0.9-0.3,1.3-0.5c0.6-0.4,1.3-0.7,2-1.1c0.6-0.4,1.3-0.7,1.9-1.1c0.1,0,0.1-0.1,0.1-0.2
			C455.1,80.9,455.1,80.6,455.1,80.3z"/>
	</g>
</g>
<g>
	<path class="st85" d="M489.9,77c0-2.2,1.8-4,4-4c2.2,0,4,1.8,4,4c0,2.2-1.8,4-4,4C491.7,81,489.9,79.2,489.9,77z"/>
	<path class="st86" d="M481.9,85c0-2.2,1.8-4,4-4h4v4c0,2.2-1.8,4-4,4C483.7,89,481.9,87.2,481.9,85z"/>
	<path class="st87" d="M489.9,65v8h4c2.2,0,4-1.8,4-4c0-2.2-1.8-4-4-4H489.9z"/>
	<path class="st88" d="M481.9,69c0,2.2,1.8,4,4,4h4v-8h-4C483.7,65,481.9,66.8,481.9,69z"/>
	<path class="st89" d="M481.9,77c0,2.2,1.8,4,4,4h4v-8h-4C483.7,73,481.9,74.8,481.9,77z"/>
</g>
<g>
	<path class="st90" d="M522.2,81.2l-1.5,0.5l-0.1,4.3l5.1-1.8C524,83.6,522.7,82.6,522.2,81.2z"/>
	<path class="st91" d="M523,76.6l-5.1,1.8l2.9,3.2l1.5-0.5C521.7,79.8,522,78.2,523,76.6z"/>
	<path class="st92" d="M531.5,70.5c-6.5,2.3-10.6,7.1-9.3,10.7l23.4-8.4C544.3,69.2,538,68.1,531.5,70.5z"/>
	<path class="st93" d="M536.3,83.5c6.5-2.3,10.7-7.1,9.3-10.7l-23.4,8.4C523.5,84.8,529.8,85.8,536.3,83.5z"/>
	<path class="st91" d="M545.6,72.8l-23.4,8.4c0.5,1.2,2.2,1.9,4.7,1.9c2.4,0,5.5-0.6,8.7-1.7C542,79,546.5,75.2,545.6,72.8z"/>
	<path class="st90" d="M541,70.9c-2.4,0-5.5,0.6-8.7,1.7c-6.5,2.3-11,6.1-10.1,8.5l23.4-8.4C545.2,71.5,543.4,70.9,541,70.9z"/>
	<path class="st93" d="M539.7,86.2L539.7,86.2c-0.7,0-1.7-0.6-3-1.8c-1.6-1.4-3.3-3.5-5-5.9c-1.7-2.4-3.1-4.7-3.9-6.7
		c-0.9-2.1-1-3.4-0.4-3.8c0.1-0.1,0.3-0.1,0.5-0.1c0.5,0,1.6,0.4,3.5,2.2l0,0l0,0.1c0,0.1,0,0.3,0,0.4l0,0.3l-0.2-0.2
		c-2-2-2.9-2.2-3.2-2.2c-0.1,0-0.2,0-0.2,0c-0.3,0.2-0.3,1.1,0.6,3.2c0.8,1.9,2.2,4.2,3.8,6.6c1.7,2.3,3.4,4.4,4.9,5.8
		c1.7,1.5,2.4,1.7,2.6,1.7c0.1,0,0.2,0,0.2-0.1c0.3-0.2,0.3-1.2-0.7-3.4l0-0.1l0.1-0.1c0.1-0.1,0.2-0.1,0.3-0.2l0.1-0.1l0.1,0.1
		c0.7,1.6,1.3,3.5,0.5,4.1C540,86.2,539.9,86.2,539.7,86.2z M539.7,86L539.7,86v0.1V86z"/>
	<path class="st93" d="M536.5,83.4l0,0.1c-0.2,2-0.6,4.4-1.7,4.5c0,0,0,0-0.1,0c-0.8,0-1.5-1.1-2.1-3.2c-0.6-2-1.1-4.7-1.4-7.6
		c-0.3-2.9-0.3-5.6,0-7.7c0.3-2.3,0.8-3.5,1.6-3.5c0,0,0,0,0.1,0c0.6,0,1.4,0.6,2.2,3.5l-0.6,0.1c-0.3-1-0.6-1.7-0.9-2.3
		c-0.3-0.5-0.6-0.8-0.8-0.8c0,0,0,0,0,0c-0.3,0-0.8,0.8-1.1,3c-0.3,2-0.3,4.7,0,7.6c0.3,2.8,0.7,5.5,1.3,7.5
		c0.3,0.9,0.6,1.6,0.9,2.1c0.3,0.5,0.5,0.7,0.7,0.7c0,0,0,0,0,0c0.3,0,0.9-0.9,1.2-3.9L536.5,83.4z"/>
</g>
</svg>
