<svg width="29" height="29" viewBox="0 0 29 29" fill="none" xmlns="http://www.w3.org/2000/svg">
<path d="M0 10.2C0 6.7 -3.03984e-06 4.9 0.699997 3.5C1.3 2.3 2.3 1.3 3.5 0.699997C4.9 -3.03984e-06 6.6 0 10.2 0H17.9C21.4 0 23.2 -3.03984e-06 24.6 0.699997C25.8 1.3 26.8 2.3 27.4 3.5C28.1 4.9 28.1 6.6 28.1 10.2V17.9C28.1 21.4 28.1 23.2 27.4 24.6C26.8 25.8 25.8 26.8 24.6 27.4C23.2 28.1 21.5 28.1 17.9 28.1H10.2C6.7 28.1 4.9 28.1 3.5 27.4C2.3 26.8 1.3 25.8 0.699997 24.6C-3.03984e-06 23.2 0 21.5 0 17.9V10.2Z" fill="#00005B"/>
<path d="M10.7999 17H6.39991L5.49992 19.9C5.49992 20 5.39992 20.1 5.29992 20.1H3.09992C2.99992 20.1 2.89992 20 2.99992 19.9L6.79992 8.49999C6.79992 8.39999 6.89991 8.29999 6.89991 8.09999C6.89991 7.79999 6.99992 7.59999 6.99992 7.29999C6.99992 7.19999 7.09992 7.09999 7.09992 7.19999H10.0999C10.1999 7.19999 10.1999 7.19999 10.2999 7.29999L14.5999 20C14.5999 20.1 14.5999 20.2 14.4999 20.2H11.9999C11.8999 20.2 11.7999 20.1 11.7999 20.1L10.7999 17ZM7.09992 14.5H10.0999C9.59992 12.8 9.09992 11.1 8.59992 9.29999C8.09992 11.2 7.69992 12.9 7.09992 14.5Z" fill="#9999FF"/>
<path d="M15.7 19.9V12.5C15.7 12.3 15.7 12 15.7 11.7C15.7 11.4 15.7 11.2 15.7 10.9C15.7 10.6 15.7 10.4 15.7 10.3C15.7 10.2 15.7 10.1 15.8 10.1H17.8C18.2 10.1 18.2 10.6 18.2 10.9C18.6 10.6 18.9999 10.3 19.3999 10.1C19.8999 9.90001 20.3 9.80001 20.8 9.90001C21.2 9.90001 21.4999 10 21.8999 10.1C22.2999 10.2 22.7 10.5 23 10.8C23.3 11.1 23.5 11.5 23.7 11.9C23.9 12.4 24 13.1 24 13.9V19.8C24 19.9 23.9 20 23.8 20H21.5C21.4 20 21.3 19.9 21.3 19.8V14.1C21.3 13.8 21.3 13.4 21.1 13.1C20.6 11.9 19 12.1 18.2 12.9V19.8C18.2 19.9 18.2 20 18 20H15.7C15.8 20.1 15.7 20 15.7 19.9Z" fill="#9999FF"/>
</svg>
