<svg width="28" height="27" viewBox="0 0 28 27" fill="none" xmlns="http://www.w3.org/2000/svg">
<g clip-path="url(#clip0_5_2)">
<path fill-rule="evenodd" clip-rule="evenodd" d="M13.84 -7.44496e-06C10.538 -0.0205173 7.33743 1.14025 4.81625 3.27272C2.29507 5.40519 0.619407 8.36881 0.0918238 11.6285C-0.435759 14.8881 0.219505 18.229 1.9393 21.0479C3.6591 23.8668 6.33009 25.9779 9.47 27C10.16 27.12 10.42 26.7 10.42 26.34C10.42 25.98 10.42 24.92 10.42 23.76C6.94 24.4 6.04 22.91 5.76 22.13C5.45295 21.3764 4.96939 20.7077 4.35 20.18C3.86 19.92 3.17 19.28 4.35 19.26C4.79332 19.3071 5.21864 19.4608 5.58958 19.7081C5.96052 19.9554 6.26604 20.2889 6.48 20.68C6.87014 21.3501 7.50462 21.8432 8.25037 22.0557C8.99611 22.2682 9.79518 22.1838 10.48 21.82C10.5429 21.1288 10.8515 20.483 11.35 20C8.27 19.65 5.06 18.46 5.06 13.16C5.02659 11.7686 5.53171 10.418 6.47 9.38999C6.04941 8.19319 6.09946 6.88127 6.61 5.71999C6.61 5.71999 7.77 5.35999 10.42 7.13999C12.6859 6.52653 15.0741 6.52653 17.34 7.13999C19.98 5.33999 21.14 5.71999 21.14 5.71999C21.6586 6.8794 21.7088 8.19445 21.28 9.38999C22.2126 10.4022 22.7209 11.7338 22.7 13.11C22.7 18.43 19.46 19.6 16.38 19.95C16.7117 20.2839 16.9674 20.6855 17.1296 21.1273C17.2918 21.5691 17.3568 22.0408 17.32 22.51C17.32 24.36 17.32 25.85 17.32 26.32C17.32 26.79 17.58 27.11 18.27 26.97C21.3798 25.9183 24.015 23.7961 25.7055 20.9819C27.3959 18.1677 28.0318 14.8446 27.4997 11.6051C26.9676 8.36566 25.3021 5.42052 22.8003 3.29498C20.2984 1.16943 17.1229 0.00168069 13.84 -7.44496e-06Z" fill="white"/>
</g>
<defs>
<clipPath id="clip0_5_2">
<rect width="27.68" height="27" fill="white"/>
</clipPath>
</defs>
</svg>
