<svg xmlns="http://www.w3.org/2000/svg" viewBox="0 0 28 28"><defs><style>.cls-1{fill:#001e36;}.cls-2{fill:#31a8ff;}</style></defs><title>Asset 1</title><g id="Layer_2" data-name="Layer 2"><g id="Layer_1-2" data-name="Layer 1"><path class="cls-1" d="M0,10.13C0,6.59,0,4.81.69,3.46A6.39,6.39,0,0,1,3.46.69C4.81,0,6.59,0,10.13,0h7.74c3.54,0,5.32,0,6.67.69a6.39,6.39,0,0,1,2.77,2.77C28,4.81,28,6.59,28,10.13v7.74c0,3.54,0,5.32-.69,6.67a6.39,6.39,0,0,1-2.77,2.77c-1.35.69-3.13.69-6.67.69H10.13c-3.54,0-5.32,0-6.67-.69A6.39,6.39,0,0,1,.69,24.54C0,23.19,0,21.41,0,17.87Z"/><path class="cls-2" d="M6,20.52V8.2c0-.08,0-.13.12-.13C7.32,8.07,8.53,8,9.73,8c2,0,4.08.67,4.82,2.72a4.51,4.51,0,0,1,.27,1.55,4.34,4.34,0,0,1-.7,2.55c-1.3,1.87-3.56,1.84-5.59,1.84V20.5c0,.12-.08.17-.17.17H6.14C6.05,20.67,6,20.62,6,20.52ZM8.54,10.38v4A6.16,6.16,0,0,0,11,14.21a1.84,1.84,0,0,0,1.32-1.87,1.79,1.79,0,0,0-1.09-1.74A5.39,5.39,0,0,0,8.54,10.38Z"/><path class="cls-2" d="M22.1,13.61A4.57,4.57,0,0,0,21,13.2c-.5-.11-2.47-.53-2.47.5,0,.58.93.86,1.33,1,1.42.49,3,1.36,3,3.11,0,2.17-2.06,3-3.87,3a6.48,6.48,0,0,1-2.78-.54.26.26,0,0,1-.13-.23V18c0-.08.08-.16.15-.1a5.58,5.58,0,0,0,2.82.77c.43,0,1.28,0,1.27-.67s-1-.89-1.42-1a6.82,6.82,0,0,1-1.67-.87,2.72,2.72,0,0,1-1.15-2.23c0-2.05,1.93-3,3.68-3a5.84,5.84,0,0,1,2.45.39c.11,0,.13.14.13.25v1.94C22.32,13.61,22.19,13.65,22.1,13.61Z"/></g></g></svg>