<svg xmlns="http://www.w3.org/2000/svg" viewBox="0 0 28 28"><defs><style>.cls-1{fill:#300;}.cls-2{fill:#ff9a00;}</style></defs><title>Asset 2</title><g id="Layer_2" data-name="Layer 2"><g id="Layer_1-2" data-name="Layer 1"><path class="cls-1" d="M0,10.13C0,6.59,0,4.81.69,3.46A6.39,6.39,0,0,1,3.46.69C4.81,0,6.59,0,10.13,0h7.74c3.54,0,5.32,0,6.67.69a6.39,6.39,0,0,1,2.77,2.77C28,4.81,28,6.59,28,10.13v7.74c0,3.54,0,5.32-.69,6.67a6.39,6.39,0,0,1-2.77,2.77c-1.35.69-3.13.69-6.67.69H10.13c-3.54,0-5.32,0-6.67-.69A6.39,6.39,0,0,1,.69,24.54C0,23.19,0,21.41,0,17.87Z"/><path class="cls-2" d="M13.57,17.6H9.23l-.88,2.81a.23.23,0,0,1-.23.17H5.92c-.12,0-.17-.07-.13-.21L9.55,9.27c0-.11.07-.24.11-.39a4.13,4.13,0,0,0,.08-.78A.12.12,0,0,1,9.87,8h3a.15.15,0,0,1,.16.1l4.26,12.33c0,.13,0,.19-.11.19H14.71a.17.17,0,0,1-.18-.13ZM9.91,15.17h3c-.48-1.67-1-3.31-1.48-5C10.91,11.86,10.38,13.54,9.91,15.17Z"/><path class="cls-2" d="M19.8,10a1.32,1.32,0,0,1-1-.43,1.46,1.46,0,0,1-.3-.51,1.49,1.49,0,0,1-.09-.59,1.32,1.32,0,0,1,.1-.58,1.43,1.43,0,0,1,.32-.49,1.52,1.52,0,0,1,.48-.31,1.54,1.54,0,0,1,.56-.1,1.39,1.39,0,0,1,1.06.41,1.71,1.71,0,0,1,.3.5,1.39,1.39,0,0,1,.09.57,1.44,1.44,0,0,1-.1.59,1.28,1.28,0,0,1-.31.51,1.33,1.33,0,0,1-.49.33A1.5,1.5,0,0,1,19.8,10ZM18.51,20.39V11.18c0-.11,0-.17.15-.17H21c.1,0,.15.06.15.17v9.21c0,.13-.05.19-.15.19H18.68C18.56,20.58,18.51,20.52,18.51,20.39Z"/></g></g></svg>