<svg xmlns="http://www.w3.org/2000/svg" xmlns:xlink="http://www.w3.org/1999/xlink" viewBox="0 0 28 28"><defs><style>.cls-1{fill:url(#linear-gradient);}.cls-2{fill:url(#linear-gradient-2);}.cls-3{fill:url(#linear-gradient-3);}</style><linearGradient id="linear-gradient" x1="23.79" y1="162" x2="23.79" y2="134" gradientTransform="matrix(1, 0, 0, -1, 0, 162)" gradientUnits="userSpaceOnUse"><stop offset="0" stop-color="#32b5f1"/><stop offset="1" stop-color="#2b9fed"/></linearGradient><linearGradient id="linear-gradient-2" x1="20.95" y1="158.53" x2="0.96" y2="141.76" gradientTransform="matrix(1, 0, 0, -1, 0, 162)" gradientUnits="userSpaceOnUse"><stop offset="0" stop-color="#0f6fb3"/><stop offset="0.27" stop-color="#1279b7"/><stop offset="0.42" stop-color="#1176b5"/><stop offset="0.62" stop-color="#0e69ac"/><stop offset="0.86" stop-color="#0f70af"/><stop offset="1" stop-color="#0f6dad"/></linearGradient><linearGradient id="linear-gradient-3" x1="1.05" y1="153.89" x2="20.98" y2="137.39" gradientTransform="matrix(1, 0, 0, -1, 0, 162)" gradientUnits="userSpaceOnUse"><stop offset="0" stop-color="#1791d2"/><stop offset="1" stop-color="#1173c5"/></linearGradient></defs><title>Asset 5</title><g id="Layer_2" data-name="Layer 2"><g id="Layer_1-2" data-name="Layer 1"><path class="cls-1" d="M21,1.12c0-.88-1-.88-1.42-.77A1.52,1.52,0,0,1,21.17.13L27.08,3A1.65,1.65,0,0,1,28,4.51V23.58a1.65,1.65,0,0,1-.94,1.49l-5.57,2.64a1.78,1.78,0,0,1-1.91,0A1.16,1.16,0,0,0,21,26.83Z"/><path class="cls-2" d="M19.65.33c.47-.09,1.35,0,1.35.79V7.68L3.07,21.25a.77.77,0,0,1-1-.1l-1.84-2a.78.78,0,0,1,0-1.1L19.58.35Z"/><path class="cls-3" d="M21,20.37,3.07,6.81a.76.76,0,0,0-1,.09L.21,8.9A.77.77,0,0,0,.25,10L19.58,27.71A1.16,1.16,0,0,0,21,26.83Z"/></g></g></svg>