<svg xmlns="http://www.w3.org/2000/svg" viewBox="0 0 28 28"><defs><style>.cls-1{fill:#ffca28;}.cls-2{fill:#3e3e3e;}</style></defs><title>Asset 6</title><g id="Layer_2" data-name="Layer 2"><g id="Layer_1-2" data-name="Layer 1"><rect class="cls-1" width="28" height="28"/><path class="cls-2" d="M17,23.29l2.06-1.37a3,3,0,0,0,2.48,1.72c1.29,0,1.89-.71,1.89-1.18,0-1.27-1.32-1.72-1.95-1.94l-.25-.09-.13-.05c-.71-.27-3.31-1.26-3.31-4.14,0-3.18,3.06-3.54,3.76-3.54a4.15,4.15,0,0,1,3.71,2.09l-2,1.4A1.91,1.91,0,0,0,21.65,15a1.2,1.2,0,0,0-1.34,1.18c0,1,1.2,1.5,2.22,1.89.26.11.52.2.73.31A4.06,4.06,0,0,1,26,22.46,3.73,3.73,0,0,1,22,26C18.19,26,17.17,23.7,17,23.29Z"/><path class="cls-2" d="M7,23.56l2.15-1.37a2.12,2.12,0,0,0,1.77,1.45,1.56,1.56,0,0,0,1.44-1.45V13H15v9.19A3.58,3.58,0,0,1,11.23,26C8.38,26,7.19,24.3,7,23.56Z"/></g></g></svg>