<svg width="29" height="29" viewBox="0 0 29 29" fill="none" xmlns="http://www.w3.org/2000/svg">
<path d="M0.900049 15.5C0.100049 14.7 0.100049 13.5 0.900049 12.7L12.9 0.699976C13.7 -0.100024 14.9001 -0.100024 15.7001 0.699976L27.7001 12.7C28.5001 13.5 28.5001 14.7 27.7001 15.5L15.7001 27.5C14.9001 28.3 13.7 28.3 12.9 27.5L0.900049 15.5Z" fill="#EE513B"/>
<path d="M10.5 3.19995L9.30005 4.39996L12.4 7.49995C12.3 7.79995 12.2 8.09996 12.2 8.39996C12.2 9.29996 12.8001 10.1 13.6001 10.4V18.1C12.8001 18.4 12.2 19.2 12.2 20.1C12.2 21.3 13.2 22.2 14.3 22.2C15.5 22.2 16.4 21.2 16.4 20.1C16.4 19.3 15.9 18.6 15.2 18.2V10.4L18.2 13.3999C18.1 13.6999 18 14 18 14.3C18 15.5 19.0001 16.3999 20.1001 16.3999C21.3001 16.3999 22.2 15.4 22.2 14.3C22.2 13.2 21.2001 12.2 20.1001 12.2C19.9001 12.2 19.7 12.2 19.4 12.3L16.2 9.09995C16.3 8.89995 16.3 8.69995 16.3 8.49995C16.3 7.29995 15.3 6.39996 14.2 6.39996C14 6.39996 13.8001 6.39995 13.6001 6.49995L10.5 3.19995Z" fill="white"/>
</svg>
