<svg xmlns="http://www.w3.org/2000/svg" viewBox="0 0 27.68 27"><defs><style>.cls-1{fill-rule:evenodd;}</style></defs><title>Asset 4</title><g id="Layer_2" data-name="Layer 2"><g id="Layer_1-2" data-name="Layer 1"><path class="cls-1" d="M13.84,0A13.84,13.84,0,0,0,9.47,27c.69.12.95-.3.95-.66s0-1.42,0-2.58c-3.48.64-4.38-.85-4.66-1.63a5.08,5.08,0,0,0-1.41-1.95c-.49-.26-1.18-.9,0-.92a2.76,2.76,0,0,1,2.13,1.42,3,3,0,0,0,4,1.14A2.9,2.9,0,0,1,11.35,20c-3.08-.35-6.29-1.54-6.29-6.84A5.4,5.4,0,0,1,6.47,9.39a5,5,0,0,1,.14-3.67s1.16-.36,3.81,1.42a13.24,13.24,0,0,1,6.92,0c2.64-1.8,3.8-1.42,3.8-1.42a4.92,4.92,0,0,1,.14,3.67,5.37,5.37,0,0,1,1.42,3.72c0,5.32-3.24,6.49-6.32,6.84a3.27,3.27,0,0,1,.94,2.56c0,1.85,0,3.34,0,3.81s.26.79.95.65A13.85,13.85,0,0,0,13.84,0Z"/></g></g></svg>