<svg xmlns="http://www.w3.org/2000/svg" viewBox="0 0 16 24"><defs><style>.cls-1{fill:#1abcfe;}.cls-1,.cls-2,.cls-3,.cls-4,.cls-5{fill-rule:evenodd;}.cls-2{fill:#0acf83;}.cls-3{fill:#ff7262;}.cls-4{fill:#f24e1e;}.cls-5{fill:#a259ff;}</style></defs><title>Asset 3</title><g id="Layer_2" data-name="Layer 2"><g id="Layer_1-2" data-name="Layer 1"><path class="cls-1" d="M8,12a4,4,0,1,1,4,4A4,4,0,0,1,8,12Z"/><path class="cls-2" d="M0,20a4,4,0,0,1,4-4H8v4a4,4,0,0,1-8,0Z"/><path class="cls-3" d="M8,0V8h4a4,4,0,0,0,0-8Z"/><path class="cls-4" d="M0,4A4,4,0,0,0,4,8H8V0H4A4,4,0,0,0,0,4Z"/><path class="cls-5" d="M0,12a4,4,0,0,0,4,4H8V8H4A4,4,0,0,0,0,12Z"/></g></g></svg>