<svg width="30" height="29" viewBox="0 0 30 29" fill="none" xmlns="http://www.w3.org/2000/svg">
<path d="M4.96932 20.5595C5.02505 20.5393 5.13649 20.5148 5.33883 20.5103C5.73651 20.5549 6.11782 20.6941 6.45091 20.9161C6.78825 21.141 7.06609 21.4443 7.26067 21.8L7.26059 21.8L7.26394 21.8058C7.6866 22.5318 8.37396 23.0659 9.18184 23.2961C9.98973 23.5264 10.8554 23.4349 11.5973 23.0408L11.7167 22.9773L11.729 22.8426C11.7864 22.211 12.0685 21.6209 12.524 21.1795L12.9039 20.8113L12.3782 20.7516C10.8529 20.5783 9.34135 20.2004 8.21138 19.2453C7.09333 18.3003 6.31 16.7557 6.31 14.16H6.31007L6.30992 14.154C6.27806 12.827 6.7598 11.5389 7.65465 10.5585L7.75541 10.4481L7.70586 10.3071C7.32122 9.21259 7.35092 8.01671 7.78637 6.94473C7.80308 6.94336 7.82179 6.94218 7.84253 6.94136C7.97072 6.93629 8.17769 6.94484 8.4691 7.00699C9.05231 7.13138 9.97553 7.47091 11.2806 8.34752L11.3753 8.4111L11.4853 8.3813C13.7084 7.77943 16.0516 7.77943 18.2747 8.3813L18.3857 8.41138L18.4808 8.34655C19.7806 7.46036 20.7005 7.12145 21.2813 6.99967C21.5715 6.93883 21.7775 6.93206 21.905 6.93843C21.9268 6.93952 21.9464 6.941 21.9637 6.94266C22.4069 8.01317 22.4369 9.21205 22.0447 10.3056L21.9936 10.4481L22.0961 10.5594C22.9853 11.5245 23.4699 12.7941 23.45 14.1062H23.45V14.11C23.45 16.7153 22.6595 18.2595 21.5344 19.2021C20.397 20.1551 18.8779 20.5282 17.3518 20.7016L16.8388 20.7599L17.2026 21.1262C17.509 21.4346 17.7451 21.8055 17.8949 22.2135C18.0448 22.6215 18.1047 23.0571 18.0708 23.4905L18.07 23.5002V23.51V23.5208V23.5317V23.5425V23.5533V23.5641V23.5749V23.5857V23.5964V23.6072V23.618V23.6287V23.6395V23.6502V23.6609V23.6716V23.6824V23.6931V23.7037V23.7144V23.7251V23.7358V23.7464V23.7571V23.7677V23.7783V23.789V23.7996V23.8102V23.8208V23.8313V23.8419V23.8525V23.863V23.8736V23.8841V23.8947V23.9052V23.9157V23.9262V23.9367V23.9472V23.9576V23.9681V23.9785V23.989V23.9994V24.0099V24.0203V24.0307V24.0411V24.0515V24.0618V24.0722V24.0826V24.0929V24.1032V24.1136V24.1239V24.1342V24.1445V24.1548V24.1651V24.1753V24.1856V24.1958V24.2061V24.2163V24.2265V24.2367V24.2469V24.2571V24.2673V24.2774V24.2876V24.2977V24.3079V24.318V24.3281V24.3382V24.3483V24.3584V24.3684V24.3785V24.3886V24.3986V24.4086V24.4186V24.4286V24.4386V24.4486V24.4586V24.4686V24.4785V24.4885V24.4984V24.5083V24.5182V24.5281V24.538V24.5479V24.5577V24.5676V24.5774V24.5872V24.5971V24.6069V24.6167V24.6264V24.6362V24.646V24.6557V24.6655V24.6752V24.6849V24.6946V24.7043V24.714V24.7236V24.7333V24.743V24.7526V24.7622V24.7718V24.7814V24.791V24.8006V24.8101V24.8197V24.8292V24.8387V24.8483V24.8578V24.8672V24.8767V24.8862V24.8956V24.9051V24.9145V24.9239V24.9333V24.9427V24.9521V24.9615V24.9708V24.9802V24.9895V24.9988V25.0081V25.0174V25.0267V25.0359V25.0452V25.0544V25.0637V25.0729V25.0821V25.0913V25.1004V25.1096V25.1188V25.1279V25.137V25.1461V25.1552V25.1643V25.1734V25.1824V25.1915V25.2005V25.2095V25.2185V25.2275V25.2365V25.2455V25.2544V25.2634V25.2723V25.2812V25.2901V25.299V25.3079V25.3167V25.3256V25.3344V25.3432V25.352V25.3608V25.3696V25.3784V25.3871V25.3958V25.4046V25.4133V25.422V25.4306V25.4393V25.448V25.4566V25.4652V25.4738V25.4824V25.491V25.4996V25.5081V25.5167V25.5252V25.5337V25.5422V25.5507V25.5591V25.5676V25.576V25.5844V25.5929V25.6012V25.6096V25.618V25.6263V25.6347V25.643V25.6513V25.6596V25.6679V25.6761V25.6844V25.6926V25.7008V25.709V25.7172V25.7254V25.7335V25.7417V25.7498V25.7579V25.766V25.7741V25.7822V25.7902V25.7983V25.8063V25.8143V25.8223V25.8302V25.8382V25.8461V25.8541V25.862V25.8699V25.8778V25.8856V25.8935V25.9013V25.9091V25.9169V25.9247V25.9325V25.9402V25.948V25.9557V25.9634V25.9711V25.9788V25.9865V25.9941V26.0017V26.0093V26.0169V26.0245V26.0321V26.0396V26.0472V26.0547V26.0622V26.0697V26.0771V26.0846V26.092V26.0994V26.1068V26.1142V26.1216V26.1289V26.1363V26.1436V26.1509V26.1582V26.1654V26.1727V26.1799V26.1871V26.1943V26.2015V26.2087V26.2158V26.223V26.2301V26.2372V26.2443V26.2513V26.2584V26.2654V26.2724V26.2794V26.2864V26.2934V26.3003V26.3072V26.3142V26.3211V26.3279V26.3348V26.3416V26.3485V26.3553V26.3621V26.3688V26.3756V26.3823V26.389V26.3957V26.4024V26.4091V26.4157V26.4224V26.429V26.4356V26.4421V26.4487V26.4552V26.4618V26.4683V26.4748V26.4812V26.4877V26.4941V26.5005V26.5069V26.5133V26.5197V26.526V26.5323V26.5386V26.5449V26.5512V26.5574V26.5637V26.5699V26.5761V26.5823V26.5884V26.5946V26.6007V26.6068V26.6129V26.6189V26.625V26.631V26.637V26.643V26.649V26.6549V26.6609V26.6668V26.6727V26.6785V26.6844V26.6902V26.6961V26.7019V26.7076V26.7134V26.7191V26.7249V26.7306V26.7363V26.7419V26.7476V26.7532V26.7588V26.7644V26.77V26.7755V26.781V26.7866V26.792V26.7975V26.803V26.8084V26.8138V26.8192V26.8246V26.8299V26.8353V26.8406V26.8459V26.8511V26.8564V26.8616V26.8668V26.872V26.8772V26.8824V26.8875V26.8926V26.8977V26.9028V26.9078V26.9129V26.9179V26.9229V26.9278V26.9328V26.9377V26.9426V26.9475V26.9524V26.9572V26.9621V26.9669V26.9717V26.9764V26.9812V26.9859V26.9906V26.9953V27V27.0046V27.0092V27.0138V27.0184V27.023V27.0275V27.032V27.0365V27.041V27.0454V27.0499V27.0543V27.0587V27.063V27.0674V27.0717V27.076V27.0803V27.0846V27.0888V27.093V27.0972V27.1014V27.1056V27.1097V27.1138V27.1179V27.122V27.126V27.13V27.134V27.138V27.142V27.1459V27.1498V27.1537V27.1576V27.1615V27.1653V27.1691V27.1729V27.1766V27.1804V27.1841V27.1878V27.1915V27.1951V27.1988V27.2024V27.206V27.2095V27.2131V27.2166V27.2201V27.2235V27.227V27.2304V27.2338V27.2372V27.2406V27.2439V27.2472V27.2505V27.2538V27.2571V27.2603V27.2635V27.2667V27.2698V27.273V27.2761V27.2792V27.2822V27.2853V27.2883V27.2913V27.2943V27.2972V27.3001V27.303V27.3059V27.3088V27.3116V27.3144V27.3172V27.32C18.07 27.5948 18.1461 27.8814 18.3799 28.0688C18.6131 28.2558 18.939 28.2922 19.3197 28.215L19.3352 28.2119L19.3501 28.2068C22.5161 27.1361 25.1988 24.9756 26.9198 22.1106C28.6408 19.2457 29.2881 15.8625 28.7464 12.5646C28.2047 9.26666 26.5092 6.26837 23.9621 4.10445C21.4153 1.94069 18.1827 0.75188 14.8408 0.749993C11.4794 0.729284 8.22134 1.91101 5.6548 4.08184C3.08808 6.25283 1.38215 9.26998 0.845035 12.5885C0.307922 15.9071 0.975023 19.3083 2.72589 22.1781C4.47675 25.0479 7.19599 27.1971 10.3926 28.2377L10.4096 28.2432L10.4272 28.2463C10.828 28.316 11.1488 28.2342 11.3702 28.0365C11.5854 27.8445 11.67 27.5754 11.67 27.34V27.3379V27.3357V27.3336V27.3314V27.3292V27.327V27.3248V27.3226V27.3204V27.3181V27.3158V27.3135V27.3112V27.3089V27.3066V27.3042V27.3018V27.2995V27.2971V27.2946V27.2922V27.2898V27.2873V27.2848V27.2823V27.2798V27.2773V27.2747V27.2722V27.2696V27.267V27.2644V27.2618V27.2592V27.2565V27.2539V27.2512V27.2485V27.2458V27.2431V27.2404V27.2376V27.2348V27.2321V27.2293V27.2264V27.2236V27.2208V27.2179V27.2151V27.2122V27.2093V27.2064V27.2034V27.2005V27.1975V27.1946V27.1916V27.1886V27.1856V27.1825V27.1795V27.1764V27.1734V27.1703V27.1672V27.164V27.1609V27.1578V27.1546V27.1514V27.1483V27.1451V27.1418V27.1386V27.1354V27.1321V27.1288V27.1256V27.1223V27.1189V27.1156V27.1123V27.1089V27.1056V27.1022V27.0988V27.0954V27.092V27.0885V27.0851V27.0816V27.0781V27.0746V27.0711V27.0676V27.0641V27.0605V27.057V27.0534V27.0498V27.0462V27.0426V27.039V27.0354V27.0317V27.028V27.0244V27.0207V27.017V27.0133V27.0095V27.0058V27.002V26.9983V26.9945V26.9907V26.9869V26.9831V26.9792V26.9754V26.9715V26.9677V26.9638V26.9599V26.956V26.9521V26.9481V26.9442V26.9402V26.9362V26.9323V26.9283V26.9242V26.9202V26.9162V26.9121V26.9081V26.904V26.8999V26.8958V26.8917V26.8876V26.8835V26.8793V26.8752V26.871V26.8668V26.8626V26.8584V26.8542V26.85V26.8457V26.8415V26.8372V26.8329V26.8287V26.8244V26.82V26.8157V26.8114V26.807V26.8027V26.7983V26.7939V26.7895V26.7851V26.7807V26.7763V26.7718V26.7674V26.7629V26.7585V26.754V26.7495V26.745V26.7404V26.7359V26.7314V26.7268V26.7223V26.7177V26.7131V26.7085V26.7039V26.6993V26.6946V26.69V26.6853V26.6807V26.676V26.6713V26.6666V26.6619V26.6572V26.6525V26.6477V26.643V26.6382V26.6334V26.6287V26.6239V26.6191V26.6143V26.6094V26.6046V26.5997V26.5949V26.59V26.5851V26.5803V26.5754V26.5704V26.5655V26.5606V26.5557V26.5507V26.5458V26.5408V26.5358V26.5308V26.5258V26.5208V26.5158V26.5108V26.5057V26.5007V26.4956V26.4905V26.4855V26.4804V26.4753V26.4702V26.465V26.4599V26.4548V26.4496V26.4445V26.4393V26.4341V26.4289V26.4237V26.4185V26.4133V26.4081V26.4029V26.3976V26.3924V26.3871V26.3818V26.3765V26.3712V26.3659V26.3606V26.3553V26.35V26.3447V26.3393V26.334V26.3286V26.3232V26.3178V26.3124V26.307V26.3016V26.2962V26.2908V26.2854V26.2799V26.2745V26.269V26.2635V26.258V26.2526V26.2471V26.2416V26.236V26.2305V26.225V26.2194V26.2139V26.2083V26.2028V26.1972V26.1916V26.186V26.1804V26.1748V26.1692V26.1636V26.158V26.1523V26.1467V26.141V26.1353V26.1297V26.124V26.1183V26.1126V26.1069V26.1012V26.0955V26.0897V26.084V26.0783V26.0725V26.0667V26.061V26.0552V26.0494V26.0436V26.0378V26.032V26.0262V26.0204V26.0146V26.0087V26.0029V25.997V25.9912V25.9853V25.9794V25.9735V25.9677V25.9618V25.9559V25.9499V25.944V25.9381V25.9322V25.9262V25.9203V25.9143V25.9084V25.9024V25.8964V25.8904V25.8845V25.8785V25.8725V25.8664V25.8604V25.8544V25.8484V25.8423V25.8363V25.8302V25.8242V25.8181V25.812V25.806V25.7999V25.7938V25.7877V25.7816V25.7755V25.7694V25.7632V25.7571V25.751V25.7448V25.7387V25.7325V25.7264V25.7202V25.714V25.7078V25.7017V25.6955V25.6893V25.6831V25.6769V25.6706V25.6644V25.6582V25.652V25.6457V25.6395V25.6332V25.627V25.6207V25.6144V25.6081V25.6019V25.5956V25.5893V25.583V25.5767V25.5704V25.5641V25.5577V25.5514V25.5451V25.5387V25.5324V25.5261V25.5197V25.5133V25.507V25.5006V25.4942V25.4879V25.4815V25.4751V25.4687V25.4623V25.4559V25.4495V25.443V25.4366V25.4302V25.4238V25.4173V25.4109V25.4044V25.398V25.3915V25.3851V25.3786V25.3721V25.3657V25.3592V25.3527V25.3462V25.3397V25.3332V25.3267V25.3202V25.3137V25.3072V25.3007V25.2941V25.2876V25.2811V25.2745V25.268V25.2614V25.2549V25.2483V25.2418V25.2352V25.2286V25.2221V25.2155V25.2089V25.2023V25.1957V25.1891V25.1825V25.1759V25.1693V25.1627V25.1561V25.1495V25.1429V25.1362V25.1296V25.123V25.1163V25.1097V25.1031V25.0964V25.0898V25.0831V25.0765V25.0698V25.0631V25.0565V25.0498V25.0431V25.0364V25.0298V25.0231V25.0164V25.0097V25.003V24.9963V24.9896V24.9829V24.9762V24.9695V24.9627V24.956V24.9493V24.9426V24.9359V24.9291V24.9224V24.9157V24.9089V24.9022V24.8954V24.8887V24.8819V24.8752V24.8684V24.8617V24.8549V24.8481V24.8414V24.8346V24.8278V24.8211V24.8143V24.8075V24.8007V24.7939V24.7872V24.7804V24.7736V24.7668V24.76V24.4598L11.3748 24.5141C9.67029 24.8276 8.63994 24.6117 8.01234 24.2595C7.38755 23.9089 7.12306 23.4015 6.99529 23.0455L6.9955 23.0455L6.99151 23.0357C6.66936 22.245 6.16199 21.5434 5.51212 20.9897L5.49132 20.972L5.46717 20.9592C5.35895 20.9017 5.23884 20.8227 5.13828 20.7381C5.0534 20.6667 4.99818 20.6044 4.96932 20.5595Z" fill="black" stroke="white" stroke-width="0.5"/>
</svg>
