<svg width="29" height="29" viewBox="0 0 29 29" fill="none" xmlns="http://www.w3.org/2000/svg">
<path d="M4.81235 20.4163C4.89236 20.3591 5.05601 20.3153 5.34777 20.31C5.78196 20.3566 6.19848 20.5075 6.56185 20.7497C6.92607 20.9925 7.22605 21.32 7.43613 21.704L7.43611 21.704L7.43679 21.7051C7.83344 22.3865 8.47849 22.8877 9.23666 23.1038C9.99483 23.3199 10.8072 23.234 11.5035 22.8641L11.5273 22.8515L11.5298 22.8245C11.5916 22.1452 11.8949 21.5106 12.3848 21.0359L12.4608 20.9623L12.3556 20.9503C10.8186 20.7756 9.25827 20.3921 8.08227 19.3981C6.90866 18.406 6.11 16.7991 6.11001 14.16L6.10998 14.1588C6.07688 12.7803 6.57733 11.4422 7.50693 10.4237L7.52708 10.4016L7.51717 10.3734C7.1035 9.1963 7.14971 7.90669 7.64596 6.76259C7.65325 6.76101 7.66243 6.75919 7.67352 6.75727C7.70825 6.75128 7.76173 6.7444 7.83463 6.74152C7.98039 6.73575 8.20404 6.74596 8.51082 6.81139C9.12446 6.94227 10.0711 7.29418 11.3921 8.1815L11.411 8.19421L11.4331 8.18825C13.6904 7.57711 16.0696 7.57711 18.3269 8.18825L18.3491 8.19427L18.3682 8.1813C19.6841 7.28407 20.6281 6.93228 21.2403 6.80393C21.5463 6.73976 21.7695 6.73141 21.915 6.73868C21.9878 6.74232 22.0412 6.74987 22.0758 6.75633C22.0873 6.75846 22.0966 6.76047 22.104 6.76219C22.6083 7.90448 22.6547 9.1972 22.2329 10.3731L22.2227 10.4016L22.2432 10.4239C23.1671 11.4267 23.6707 12.7459 23.65 14.1092V14.11C23.65 16.759 22.8439 18.3659 21.6629 19.3554C20.4794 20.347 18.9116 20.7256 17.3743 20.9003L17.2718 20.912L17.3445 20.9852C17.6711 21.314 17.9229 21.7095 18.0827 22.1446C18.2424 22.5796 18.3064 23.044 18.2701 23.5061L18.27 23.5061V23.51V23.5208V23.5317V23.5425V23.5533V23.5641V23.5749V23.5857V23.5964V23.6072V23.618V23.6287V23.6395V23.6502V23.6609V23.6716V23.6824V23.6931V23.7037V23.7144V23.7251V23.7358V23.7464V23.7571V23.7677V23.7783V23.789V23.7996V23.8102V23.8208V23.8313V23.8419V23.8525V23.863V23.8736V23.8841V23.8947V23.9052V23.9157V23.9262V23.9367V23.9472V23.9576V23.9681V23.9785V23.989V23.9994V24.0099V24.0203V24.0307V24.0411V24.0515V24.0618V24.0722V24.0826V24.0929V24.1032V24.1136V24.1239V24.1342V24.1445V24.1548V24.1651V24.1753V24.1856V24.1958V24.2061V24.2163V24.2265V24.2367V24.2469V24.2571V24.2673V24.2774V24.2876V24.2977V24.3079V24.318V24.3281V24.3382V24.3483V24.3584V24.3684V24.3785V24.3886V24.3986V24.4086V24.4186V24.4286V24.4386V24.4486V24.4586V24.4686V24.4785V24.4885V24.4984V24.5083V24.5182V24.5281V24.538V24.5479V24.5577V24.5676V24.5774V24.5872V24.5971V24.6069V24.6167V24.6264V24.6362V24.646V24.6557V24.6655V24.6752V24.6849V24.6946V24.7043V24.714V24.7236V24.7333V24.743V24.7526V24.7622V24.7718V24.7814V24.791V24.8006V24.8101V24.8197V24.8292V24.8387V24.8483V24.8578V24.8672V24.8767V24.8862V24.8956V24.9051V24.9145V24.9239V24.9333V24.9427V24.9521V24.9615V24.9708V24.9802V24.9895V24.9988V25.0081V25.0174V25.0267V25.0359V25.0452V25.0544V25.0637V25.0729V25.0821V25.0913V25.1004V25.1096V25.1188V25.1279V25.137V25.1461V25.1552V25.1643V25.1734V25.1824V25.1915V25.2005V25.2095V25.2185V25.2275V25.2365V25.2455V25.2544V25.2634V25.2723V25.2812V25.2901V25.299V25.3079V25.3167V25.3256V25.3344V25.3432V25.352V25.3608V25.3696V25.3784V25.3871V25.3958V25.4046V25.4133V25.422V25.4306V25.4393V25.448V25.4566V25.4652V25.4738V25.4824V25.491V25.4996V25.5081V25.5167V25.5252V25.5337V25.5422V25.5507V25.5591V25.5676V25.576V25.5844V25.5929V25.6012V25.6096V25.618V25.6263V25.6347V25.643V25.6513V25.6596V25.6679V25.6761V25.6844V25.6926V25.7008V25.709V25.7172V25.7254V25.7335V25.7417V25.7498V25.7579V25.766V25.7741V25.7822V25.7902V25.7983V25.8063V25.8143V25.8223V25.8302V25.8382V25.8461V25.8541V25.862V25.8699V25.8778V25.8856V25.8935V25.9013V25.9091V25.9169V25.9247V25.9325V25.9402V25.948V25.9557V25.9634V25.9711V25.9788V25.9865V25.9941V26.0017V26.0093V26.0169V26.0245V26.0321V26.0396V26.0472V26.0547V26.0622V26.0697V26.0771V26.0846V26.092V26.0994V26.1068V26.1142V26.1216V26.1289V26.1363V26.1436V26.1509V26.1582V26.1654V26.1727V26.1799V26.1871V26.1943V26.2015V26.2087V26.2158V26.223V26.2301V26.2372V26.2443V26.2513V26.2584V26.2654V26.2724V26.2794V26.2864V26.2934V26.3003V26.3072V26.3142V26.3211V26.3279V26.3348V26.3416V26.3485V26.3553V26.3621V26.3688V26.3756V26.3823V26.389V26.3957V26.4024V26.4091V26.4157V26.4224V26.429V26.4356V26.4421V26.4487V26.4552V26.4618V26.4683V26.4748V26.4812V26.4877V26.4941V26.5005V26.5069V26.5133V26.5197V26.526V26.5323V26.5386V26.5449V26.5512V26.5574V26.5637V26.5699V26.5761V26.5823V26.5884V26.5946V26.6007V26.6068V26.6129V26.6189V26.625V26.631V26.637V26.643V26.649V26.6549V26.6609V26.6668V26.6727V26.6785V26.6844V26.6902V26.6961V26.7019V26.7076V26.7134V26.7191V26.7249V26.7306V26.7363V26.7419V26.7476V26.7532V26.7588V26.7644V26.77V26.7755V26.781V26.7866V26.792V26.7975V26.803V26.8084V26.8138V26.8192V26.8246V26.8299V26.8353V26.8406V26.8459V26.8511V26.8564V26.8616V26.8668V26.872V26.8772V26.8824V26.8875V26.8926V26.8977V26.9028V26.9078V26.9129V26.9179V26.9229V26.9278V26.9328V26.9377V26.9426V26.9475V26.9524V26.9572V26.9621V26.9669V26.9717V26.9764V26.9812V26.9859V26.9906V26.9953V27V27.0046V27.0092V27.0138V27.0184V27.023V27.0275V27.032V27.0365V27.041V27.0454V27.0499V27.0543V27.0587V27.063V27.0674V27.0717V27.076V27.0803V27.0846V27.0888V27.093V27.0972V27.1014V27.1056V27.1097V27.1138V27.1179V27.122V27.126V27.13V27.134V27.138V27.142V27.1459V27.1498V27.1537V27.1576V27.1615V27.1653V27.1691V27.1729V27.1766V27.1804V27.1841V27.1878V27.1915V27.1951V27.1988V27.2024V27.206V27.2095V27.2131V27.2166V27.2201V27.2235V27.227V27.2304V27.2338V27.2372V27.2406V27.2439V27.2472V27.2505V27.2538V27.2571V27.2603V27.2635V27.2667V27.2698V27.273V27.2761V27.2792V27.2822V27.2853V27.2883V27.2913V27.2943V27.2972V27.3001V27.303V27.3059V27.3088V27.3116V27.3144V27.3172V27.32C18.27 27.563 18.3372 27.7783 18.505 27.9128C18.6726 28.0471 18.9278 28.0904 19.2799 28.019L19.28 28.0194L19.286 28.0174C22.4071 26.9618 25.0517 24.832 26.7483 22.0076C28.4449 19.1833 29.0831 15.8482 28.5491 12.597C28.015 9.34586 26.3435 6.39009 23.8326 4.25687C21.3218 2.12368 18.1348 0.951721 14.8402 0.949993C11.5263 0.929443 8.31421 2.09441 5.78396 4.23454C3.25367 6.37471 1.57196 9.34904 1.04247 12.6205C0.512977 15.8919 1.17061 19.2449 2.89662 22.0739C4.62263 24.903 7.30327 27.0217 10.4545 28.0475L10.4544 28.048L10.4614 28.0493C10.8176 28.1112 11.0717 28.0348 11.237 27.8873C11.4011 27.7409 11.47 27.5311 11.47 27.34V27.3379V27.3357V27.3336V27.3314V27.3292V27.327V27.3248V27.3226V27.3204V27.3181V27.3158V27.3135V27.3112V27.3089V27.3066V27.3042V27.3018V27.2995V27.2971V27.2946V27.2922V27.2898V27.2873V27.2848V27.2823V27.2798V27.2773V27.2747V27.2722V27.2696V27.267V27.2644V27.2618V27.2592V27.2565V27.2539V27.2512V27.2485V27.2458V27.2431V27.2404V27.2376V27.2348V27.2321V27.2293V27.2264V27.2236V27.2208V27.2179V27.2151V27.2122V27.2093V27.2064V27.2034V27.2005V27.1975V27.1946V27.1916V27.1886V27.1856V27.1825V27.1795V27.1764V27.1734V27.1703V27.1672V27.164V27.1609V27.1578V27.1546V27.1514V27.1483V27.1451V27.1418V27.1386V27.1354V27.1321V27.1288V27.1256V27.1223V27.1189V27.1156V27.1123V27.1089V27.1056V27.1022V27.0988V27.0954V27.092V27.0885V27.0851V27.0816V27.0781V27.0746V27.0711V27.0676V27.0641V27.0605V27.057V27.0534V27.0498V27.0462V27.0426V27.039V27.0354V27.0317V27.028V27.0244V27.0207V27.017V27.0133V27.0095V27.0058V27.002V26.9983V26.9945V26.9907V26.9869V26.9831V26.9792V26.9754V26.9715V26.9677V26.9638V26.9599V26.956V26.9521V26.9481V26.9442V26.9402V26.9362V26.9323V26.9283V26.9242V26.9202V26.9162V26.9121V26.9081V26.904V26.8999V26.8958V26.8917V26.8876V26.8835V26.8793V26.8752V26.871V26.8668V26.8626V26.8584V26.8542V26.85V26.8457V26.8415V26.8372V26.8329V26.8287V26.8244V26.82V26.8157V26.8114V26.807V26.8027V26.7983V26.7939V26.7895V26.7851V26.7807V26.7763V26.7718V26.7674V26.7629V26.7585V26.754V26.7495V26.745V26.7404V26.7359V26.7314V26.7268V26.7223V26.7177V26.7131V26.7085V26.7039V26.6993V26.6946V26.69V26.6853V26.6807V26.676V26.6713V26.6666V26.6619V26.6572V26.6525V26.6477V26.643V26.6382V26.6334V26.6287V26.6239V26.6191V26.6143V26.6094V26.6046V26.5997V26.5949V26.59V26.5851V26.5803V26.5754V26.5704V26.5655V26.5606V26.5557V26.5507V26.5458V26.5408V26.5358V26.5308V26.5258V26.5208V26.5158V26.5108V26.5057V26.5007V26.4956V26.4905V26.4855V26.4804V26.4753V26.4702V26.465V26.4599V26.4548V26.4496V26.4445V26.4393V26.4341V26.4289V26.4237V26.4185V26.4133V26.4081V26.4029V26.3976V26.3924V26.3871V26.3818V26.3765V26.3712V26.3659V26.3606V26.3553V26.35V26.3447V26.3393V26.334V26.3286V26.3232V26.3178V26.3124V26.307V26.3016V26.2962V26.2908V26.2854V26.2799V26.2745V26.269V26.2635V26.258V26.2526V26.2471V26.2416V26.236V26.2305V26.225V26.2194V26.2139V26.2083V26.2028V26.1972V26.1916V26.186V26.1804V26.1748V26.1692V26.1636V26.158V26.1523V26.1467V26.141V26.1353V26.1297V26.124V26.1183V26.1126V26.1069V26.1012V26.0955V26.0897V26.084V26.0783V26.0725V26.0667V26.061V26.0552V26.0494V26.0436V26.0378V26.032V26.0262V26.0204V26.0146V26.0087V26.0029V25.997V25.9912V25.9853V25.9794V25.9735V25.9677V25.9618V25.9559V25.9499V25.944V25.9381V25.9322V25.9262V25.9203V25.9143V25.9084V25.9024V25.8964V25.8904V25.8845V25.8785V25.8725V25.8664V25.8604V25.8544V25.8484V25.8423V25.8363V25.8302V25.8242V25.8181V25.812V25.806V25.7999V25.7938V25.7877V25.7816V25.7755V25.7694V25.7632V25.7571V25.751V25.7448V25.7387V25.7325V25.7264V25.7202V25.714V25.7078V25.7017V25.6955V25.6893V25.6831V25.6769V25.6706V25.6644V25.6582V25.652V25.6457V25.6395V25.6332V25.627V25.6207V25.6144V25.6081V25.6019V25.5956V25.5893V25.583V25.5767V25.5704V25.5641V25.5577V25.5514V25.5451V25.5387V25.5324V25.5261V25.5197V25.5133V25.507V25.5006V25.4942V25.4879V25.4815V25.4751V25.4687V25.4623V25.4559V25.4495V25.443V25.4366V25.4302V25.4238V25.4173V25.4109V25.4044V25.398V25.3915V25.3851V25.3786V25.3721V25.3657V25.3592V25.3527V25.3462V25.3397V25.3332V25.3267V25.3202V25.3137V25.3072V25.3007V25.2941V25.2876V25.2811V25.2745V25.268V25.2614V25.2549V25.2483V25.2418V25.2352V25.2286V25.2221V25.2155V25.2089V25.2023V25.1957V25.1891V25.1825V25.1759V25.1693V25.1627V25.1561V25.1495V25.1429V25.1362V25.1296V25.123V25.1163V25.1097V25.1031V25.0964V25.0898V25.0831V25.0765V25.0698V25.0631V25.0565V25.0498V25.0431V25.0364V25.0298V25.0231V25.0164V25.0097V25.003V24.9963V24.9896V24.9829V24.9762V24.9695V24.9627V24.956V24.9493V24.9426V24.9359V24.9291V24.9224V24.9157V24.9089V24.9022V24.8954V24.8887V24.8819V24.8752V24.8684V24.8617V24.8549V24.8481V24.8414V24.8346V24.8278V24.8211V24.8143V24.8075V24.8007V24.7939V24.7872V24.7804V24.7736V24.7668V24.76V24.7L11.411 24.7108C9.67806 25.0295 8.59598 24.8163 7.91446 24.4339C7.23351 24.0518 6.94461 23.4963 6.80706 23.1131L6.8071 23.1131L6.8063 23.1111C6.49623 22.3502 6.00791 21.6748 5.38242 21.1419L5.38321 21.141L5.37343 21.1358C5.25379 21.0723 5.12176 20.9855 5.00953 20.8911C4.89612 20.7957 4.80791 20.6967 4.76947 20.6098C4.75053 20.567 4.74535 20.5308 4.75128 20.5011C4.75697 20.4725 4.7741 20.4436 4.81235 20.4163Z" fill="black" stroke="white" stroke-width="0.1"/>
</svg>
