<svg width="29" height="29" viewBox="0 0 29 29" fill="none" xmlns="http://www.w3.org/2000/svg">
<path d="M0 10.2C0 6.7 1.2219e-05 4.9 0.700012 3.5C1.30001 2.3 2.3 1.3 3.5 0.699997C4.9 -3.03984e-06 6.60001 0 10.2 0H17.9C21.4 0 23.2 -3.03984e-06 24.6 0.699997C25.8 1.3 26.8 2.3 27.4 3.5C28.1 4.9 28.1 6.6 28.1 10.2V17.9C28.1 21.4 28.1 23.2 27.4 24.6C26.8 25.8 25.8 26.8 24.6 27.4C23.2 28.1 21.5 28.1 17.9 28.1H10.2C6.70001 28.1 4.9 28.1 3.5 27.4C2.3 26.8 1.30001 25.8 0.700012 24.6C1.2219e-05 23.2 0 21.5 0 17.9V10.2Z" fill="#470137"/>
<path d="M14.6001 8.29999L11.1001 14.2L14.8 20.5C14.9 20.6 14.8001 20.7 14.7001 20.7H12.0001C11.8001 20.7 11.7001 20.7 11.6001 20.6C11.4001 20.1 11.1 19.6 10.8 19.1C10.5 18.6 10.3001 18.1 10.0001 17.6C9.70006 17.1 9.40007 16.6 9.20007 16C8.90007 16.5 8.70005 17 8.40005 17.5C8.10005 18 7.90007 18.5 7.60007 19C7.30007 19.5 7.10005 20 6.80005 20.5C6.70005 20.6 6.70006 20.6 6.50006 20.6H3.90005C3.80005 20.6 3.80005 20.5 3.80005 20.4L7.40005 14.3L3.90005 8.19999C3.80005 8.09999 3.90006 7.99999 4.00006 7.99999H6.60007C6.70007 7.99999 6.80005 7.99999 6.90005 8.09999C7.10005 8.59999 7.40007 9.09999 7.70007 9.59999C8.00007 10.1 8.30006 10.6 8.50006 11.1C8.80006 11.6 9.10005 12.1 9.30005 12.6C9.60005 12.1 9.80007 11.6 10.1001 11.1C10.4001 10.6 10.6001 10.1 10.9001 9.59999C11.2001 9.09999 11.4001 8.59999 11.7001 8.09999C11.7001 7.99999 11.8001 7.89999 11.9001 7.89999H14.4001C14.6001 8.09999 14.7001 8.29999 14.6001 8.29999Z" fill="#FF61F6"/>
<path d="M20.0001 21C18.3001 21 16.6001 20.3 15.7001 18.8C15.3001 18.1 15.1001 17.2 15.1001 16.1C15.1001 15.2 15.3001 14.3 15.7001 13.6C16.8001 11.6 19.0001 10.9 21.1001 11.1V7.3C21.1001 7.2 21.1001 7.2 21.2001 7.2H23.6001C23.7001 7.2 23.7001 7.2 23.7001 7.3V18.7C23.7001 19.2 23.7001 19.6 23.8001 20.1C23.8001 20.2 23.8001 20.3 23.7001 20.3C22.6001 20.7 21.3001 20.9 20.0001 21ZM21.2001 18.6V13.3C19.5001 12.8 17.8001 14.1 17.8001 15.9C17.8001 17.8 19.4001 19.1 21.2001 18.6Z" fill="#FF61F6"/>
</svg>
