<svg width="28" height="22" viewBox="0 0 28 22" fill="none" xmlns="http://www.w3.org/2000/svg">
<path fill-rule="evenodd" clip-rule="evenodd" d="M4.29999 15.2L2.79999 15.7L2.69995 20L7.79999 18.2C6.09999 17.6 4.79999 16.6 4.29999 15.2Z" fill="#FDBD39"/>
<path fill-rule="evenodd" clip-rule="evenodd" d="M5.09998 10.6L0 12.4L2.89996 15.6L4.39996 15.1C3.79996 13.8 4.09998 12.2 5.09998 10.6Z" fill="#F69833"/>
<path fill-rule="evenodd" clip-rule="evenodd" d="M13.6 4.5C7.10004 6.8 3.00005 11.6 4.30005 15.2L27.7 6.8C26.4 3.2 20.1 2.1 13.6 4.5Z" fill="#FECF33"/>
<path fill-rule="evenodd" clip-rule="evenodd" d="M18.4 17.5C24.9 15.2 29.1 10.4 27.7 6.8L4.30005 15.2C5.60005 18.8 11.9 19.8 18.4 17.5Z" fill="#EE6723"/>
<path fill-rule="evenodd" clip-rule="evenodd" d="M27.7 6.8L4.30005 15.2C4.80005 16.4 6.50006 17.1 9.00006 17.1C11.4001 17.1 14.5 16.5 17.7 15.4C24.1 13 28.6 9.2 27.7 6.8Z" fill="#F69833"/>
<path fill-rule="evenodd" clip-rule="evenodd" d="M23.1001 4.89999C20.7001 4.89999 17.6001 5.49999 14.4001 6.59999C7.90007 8.89999 3.4001 12.7 4.3001 15.1L27.7001 6.69999C27.3001 5.49999 25.5001 4.89999 23.1001 4.89999Z" fill="#FDBD39"/>
<path fill-rule="evenodd" clip-rule="evenodd" d="M21.8 20.2C21.1 20.2 20.1 19.6 18.8 18.4C17.2 17 15.5 14.9 13.8 12.5C12.1 10.1 10.7 7.8 9.89999 5.8C8.99999 3.7 8.90002 2.39999 9.50002 1.99999C9.60002 1.89999 9.80002 1.89999 10 1.89999C10.5 1.89999 11.6 2.29999 13.5 4.09999V4.19999C13.5 4.29999 13.5 4.49999 13.5 4.59999V4.89999L13.3 4.69999C11.3 2.69999 10.4 2.49999 10.1 2.49999C10 2.49999 9.89999 2.49999 9.89999 2.49999C9.59999 2.69999 9.60002 3.59999 10.5 5.69999C11.3 7.59999 12.7 9.9 14.3 12.3C16 14.6 17.7 16.7 19.2 18.1C20.9 19.6 21.6 19.8 21.8 19.8C21.9 19.8 22 19.8 22 19.7C22.3 19.5 22.3 18.5 21.3 16.3V16.2L21.4 16.1C21.5 16 21.6 16 21.7 15.9L21.8 15.8L21.9 15.9C22.6 17.5 23.2 19.4 22.4 20C22.1 20.2 22 20.2 21.8 20.2Z" fill="#EE6723"/>
<path fill-rule="evenodd" clip-rule="evenodd" d="M18.5999 17.4V17.5C18.3999 19.5 17.9999 21.9 16.8999 22C16.8999 22 16.9 22 16.8 22C16 22 15.2999 20.9 14.6999 18.8C14.0999 16.8 13.6 14.1 13.3 11.2C13 8.3 13 5.6 13.3 3.5C13.6 1.2 14.0999 0 14.8999 0C14.8999 0 14.9 0 15 0C15.6 0 16.3999 0.6 17.1999 3.5L16.5999 3.6C16.2999 2.6 15.9999 1.9 15.6999 1.3C15.3999 0.800003 15.0999 0.5 14.8999 0.5C14.5999 0.5 14.1 1.3 13.8 3.5C13.5 5.5 13.5 8.2 13.8 11.1C14.1 13.9 14.4999 16.6 15.0999 18.6C15.3999 19.5 15.7 20.2 16 20.7C16.3 21.2 16.4999 21.4 16.6999 21.4C16.9999 21.4 17.5999 20.5 17.8999 17.5L18.5999 17.4Z" fill="#EE6723"/>
</svg>
